<svg xmlns="http://www.w3.org/2000/svg" width="500" viewBox="0 0 375 75" height="100" version="1.0"><path d="M8.86 37.85h8.566v-.406c-2.582 0-2.582-2.926-2.582-4.59V22.108h11.625c6.765 0 9.965-4.59 9.965-9.313 0-4.523-3.403-8.941-9.895-8.941H8.86v.406c2.586 0 2.586 2.926 2.586 4.59v24.004c0 1.664 0 4.59-2.586 4.59Zm5.984-33.316h9.144c6.051 0 9.078 4.078 9.078 8.363 0 4.453-3.027 8.5-8.976 8.5h-9.246ZM37.619 3.854v.406c1.328 0 3.129-.715 3.707-.715.613 0 .578.578.578 1.496v30.43c0 1.664.137 3.059 1.461 3.059 2.21 0 4.523-3.059 6.36-4.895l-.274-.41c-1.324 1.496-2.55 2.21-3.332 2.21-.508 0-.817-.304-.817-.917V3.444c0-1.395-.746-1.867-1.324-1.867-.406 0-1.09.746-3.129 1.527-1.156.441-2.207.75-3.23.75ZM50.403 18.268c1.258 0 1.562-.375 2.14-.375.446 0 .446.578.446 1.496v12.648c0 3.23.441 6.493 4.453 6.493 3.672 0 7.445-2.48 10.332-5.371v2.378c0 1.668.137 2.993 1.465 2.993 2.207 0 4.52-2.993 6.355-4.828l-.27-.407c-1.327 1.496-2.55 2.207-3.331 2.207-.512 0-.817-.304-.817-.918V16.94c0-1.39-.273-1.867-.851-1.867-.543 0-1.086.78-2.04 1.46-.952.68-2.277 1.325-3.093 1.325v.41c1.258 0 1.562-.375 2.14-.375.442 0 .442.578.442 1.496v12.785c-1.598 1.867-4.93 5.098-8.805 5.098-2.582 0-2.582-2.922-2.582-4.59V16.94c0-1.39-.273-1.867-.851-1.867-.543 0-1.086.78-2.04 1.46-.953.68-2.277 1.325-3.093 1.325ZM83.653 38.53c6.086 0 12.644-2.856 12.644-8.942 0-5.097-4.691-4.758-8.328-4.758-5.883 0-8.5-.101-8.5-3.23 0-3.164 3.469-5.68 8.16-5.68 3.434 0 6.461 2.145 6.461 4.864h.473v-4.317c-1.867-.715-3.363-1.226-6.934-1.226-5.472 0-9.925 3.129-9.925 7.886 0 5.067 4.078 5.168 9.347 5.168 3.196 0 7.856-.472 7.856 2.11 0 4.554-4.25 6.8-8.5 6.832-3.606.035-6.121-1.97-6.121-3.977 0-.715.101-1.394.68-1.7-.137-.171-.477-.273-.782-.273-1.324 0-2.55 1.02-2.55 2.825 0 2.683 2.038 4.418 6.019 4.418ZM130.43 38.702c10.2 0 17.305-7.993 17.305-17.852 0-9.86-7.106-17.848-17.305-17.848-10.2 0-17.305 7.989-17.305 17.848 0 9.86 7.106 17.852 17.305 17.852ZM116.696 20.85c0-9.383 5.644-16.996 13.734-16.996 8.094 0 13.734 7.613 13.734 16.996s-5.64 17-13.734 17c-8.09 0-13.734-7.617-13.734-17ZM152.594 17.893c.445 0 .445.578.445 1.496v13.465c0 1.664 0 4.59-2.586 4.59v.406h8.567v-.406c-2.582 0-2.582-2.926-2.582-4.59V22.04c1.222-1.53 4.965-5.78 9.383-5.78 2.582 0 2.582 2.925 2.582 4.589v14.687c0 1.668.136 2.993 1.464 2.993 2.207 0 4.52-2.993 6.356-4.828l-.27-.407c-1.328 1.496-2.55 2.207-3.332 2.207-.511 0-.816-.304-.816-.918V21.498c0-3.23-.441-6.496-4.453-6.496-3.946 0-7.922 2.825-10.914 5.95V16.94c0-1.39-.274-1.867-.852-1.867-.543 0-1.055.746-2.039 1.46-.918.68-2.277 1.325-3.094 1.325v.41c1.258 0 1.563-.375 2.141-.375ZM178.262 30.303c0 5.883 3.742 8.227 8.363 8.227 5.27 0 9.758-4.078 11.117-8.16l-.476-.137c-.746 2.515-5.27 6.937-9.043 6.937-4.961 0-6.63-4.148-6.63-8.703 0-6.39 4.184-12.785 9.997-12.785 2.312 0 3.297 1.496 3.297 3.54 0 4.179-4.555 11.25-9.621 11.25-.954 0-1.563-.102-2.04-.372l-.203.441c.782.407 1.36.508 2.684.508 4.082 0 12.07-3.91 12.07-10.98 0-3.399-3.058-4.828-6.187-4.828-7.785 0-13.328 7.992-13.328 15.062ZM214.604 20.85c0 9.86 7.105 17.852 17.304 17.852 10.2 0 12.477-4.762 12.477-4.762v-4.625h-.406c-1.77 4.762-4.965 8.535-9.758 8.535-9.758 0-16.793-9.348-16.793-19.445 0-6.055 3.636-14.418 13.36-14.418 4.417 0 8.636 2.144 10.741 7.004h.41l-1.835-7.137s-2.856-.852-8.196-.852c-10.199 0-17.304 7.989-17.304 17.848ZM247.784 30.303c0 5.883 3.742 8.227 8.363 8.227 7.785 0 12.445-7.582 12.445-15.063 0-5.879-3.742-8.226-8.363-8.226-7.785 0-12.445 7.582-12.445 15.062Zm3.093-1.633c0-5.949 2.891-12.68 8.125-12.68 4.422 0 6.461 4.59 6.461 9.044 0 5.949-2.89 12.68-8.125 12.68-4.453 0-6.46-4.59-6.46-9.044ZM273.45 17.893c.445 0 .445.578.445 1.496v13.465c0 1.664 0 4.59-2.585 4.59v.406h8.566v-.406c-2.582 0-2.582-2.926-2.582-4.59V22.04c1.223-1.53 4.965-5.78 9.383-5.78 2.582 0 2.582 2.925 2.582 4.589v14.687c0 1.668.136 2.993 1.465 2.993 2.207 0 4.52-2.993 6.355-4.828l-.27-.407c-1.328 1.496-2.55 2.207-3.332 2.207-.511 0-.816-.304-.816-.918V21.498c0-3.23-.441-6.496-4.453-6.496-3.945 0-7.922 2.825-10.914 5.95V16.94c0-1.39-.274-1.867-.852-1.867-.543 0-1.054.746-2.039 1.46-.918.68-2.277 1.325-3.093 1.325v.41c1.257 0 1.562-.375 2.14-.375ZM300.446 16.362v19.175c0 1.668.133 2.993 1.46 2.993 2.212 0 4.52-2.993 6.356-4.828l-.27-.407c-1.327 1.496-2.55 2.207-3.331 2.207-.512 0-.817-.304-.817-.918V16.362c1.801.035 3.637.308 4.864.851V15.92h-4.864V5.315h-.68c0 2.855.169 10.605-6.085 10.605v.41ZM310.745 30.303c0 5.883 3.742 8.227 8.363 8.227 5.27 0 9.758-4.078 11.117-8.16l-.477-.137c-.746 2.515-5.27 6.937-9.043 6.937-4.96 0-6.628-4.148-6.628-8.703 0-6.39 4.183-12.785 9.996-12.785 2.312 0 3.297 1.496 3.297 3.54 0 4.179-4.555 11.25-9.622 11.25-.953 0-1.562-.102-2.039-.372l-.203.441c.781.407 1.36.508 2.684.508 4.082 0 12.07-3.91 12.07-10.98 0-3.399-3.058-4.828-6.187-4.828-7.786 0-13.328 7.992-13.328 15.062ZM335.12 17.893c.444 0 .444.578.444 1.496v13.465c0 1.664 0 4.59-2.586 4.59v.406h8.567v-.406c-2.582 0-2.582-2.926-2.582-4.59V22.04c1.222-1.53 4.965-5.78 9.383-5.78 2.582 0 2.582 2.925 2.582 4.589v14.687c0 1.668.136 2.993 1.465 2.993 2.207 0 4.519-2.993 6.355-4.828l-.27-.407c-1.328 1.496-2.55 2.207-3.332 2.207-.511 0-.816-.304-.816-.918V21.498c0-3.23-.441-6.496-4.453-6.496-3.945 0-7.922 2.825-10.914 5.95V16.94c0-1.39-.274-1.867-.852-1.867-.543 0-1.054.746-2.039 1.46-.918.68-2.277 1.325-3.094 1.325v.41c1.258 0 1.563-.375 2.141-.375ZM362.115 16.362v19.175c0 1.668.133 2.993 1.46 2.993 2.212 0 4.52-2.993 6.356-4.828l-.27-.407c-1.327 1.496-2.55 2.207-3.331 2.207-.512 0-.817-.304-.817-.918V16.362c1.801.035 3.637.308 4.864.851V15.92h-4.864V5.315h-.68c0 2.855.169 10.605-6.085 10.605v.41ZM45.879 49.91c.555.125 1.293.332 1.973 1.863.445 1 .777 2.055 1.847 4.918.89 2.363 2.156 5.629 2.739 7.02.07.164.14.277.238.277.097 0 .18-.082.25-.293.57-1.695 1.863-5.266 2.445-7.004.027-.082.07-.18.098-.262.82 2.473 1.832 4.875 2.836 7.282.066.164.136.277.234.277s.18-.082.25-.293c.57-1.695 1.809-5.293 2.445-7.004 1.07-2.863 1.407-3.918 1.852-4.918.68-1.531 1.414-1.738 1.973-1.863v-.168h-3.614v.168c.485 0 1.153.36 1.153 1.168 0 1.07-2.559 8.086-3.668 11.062-.766-1.89-3.922-9.855-3.922-11.062 0-.809.668-1.168 1.156-1.168v-.168h-4.422v.168c.559.125 1.293.332 1.977 1.863.402.902.722 1.86 1.57 4.184a225.748 225.748 0 0 1-2.226 6.183c-.762-1.89-3.918-9.855-3.918-11.062 0-.809.668-1.168 1.152-1.168v-.168h-4.418ZM65.875 60.554c0 2.407 1.53 3.364 3.421 3.364 2.153 0 3.989-1.668 4.543-3.336l-.195-.055c-.305 1.027-2.152 2.836-3.695 2.836-2.031 0-2.711-1.695-2.711-3.559 0-2.613 1.71-5.226 4.086-5.226.945 0 1.347.613 1.347 1.445 0 1.711-1.863 4.602-3.933 4.602-.387 0-.637-.043-.832-.153l-.082.18c.316.168.554.207 1.097.207 1.668 0 4.934-1.598 4.934-4.488 0-1.387-1.254-1.973-2.531-1.973-3.184 0-5.45 3.266-5.45 6.156ZM75.512 59.695c0 2.098 1.07 4.223 3.504 4.223 1.473 0 2.32-.903 2.808-1.793v.57c0 .68.067 1.223.61 1.223.902 0 1.847-1.223 2.601-1.973l-.113-.168c-.543.613-1.043.906-1.363.906-.207 0-.332-.129-.332-.379l-.016-2.222c-.027-3.489-.012-7.016-.012-10.504 0-.57-.304-.766-.543-.766-.167 0-.445.305-1.277.625-.473.18-.902.305-1.32.305v.168c.543 0 1.277-.293 1.515-.293.25 0 .235.238.235.613v5.281c-.25-.433-.903-1.113-2.403-1.113-2.101 0-3.894 2.25-3.894 5.297Zm4.297-4.934c1.18 0 1.945.973 2.015 1.82v4.723c-.433 1.348-1.347 2.266-2.683 2.266-1.516 0-2.14-2.055-2.14-3.875 0-2.074.542-4.934 2.808-4.934ZM85.858 59.695c0 2.098 1.07 4.223 3.503 4.223 1.473 0 2.32-.903 2.809-1.793v.57c0 .68.066 1.223.61 1.223.902 0 1.847-1.223 2.601-1.973l-.113-.168c-.543.613-1.043.906-1.364.906-.207 0-.332-.129-.332-.379l-.015-2.222c-.028-3.489-.012-7.016-.012-10.504 0-.57-.305-.766-.543-.766-.168 0-.445.305-1.277.625-.473.18-.903.305-1.32.305v.168c.542 0 1.277-.293 1.515-.293.25 0 .234.238.234.613v5.281c-.25-.433-.902-1.113-2.402-1.113-2.102 0-3.894 2.25-3.894 5.297Zm4.296-4.934c1.18 0 1.946.973 2.016 1.82v4.723c-.434 1.348-1.348 2.266-2.684 2.266-1.515 0-2.14-2.055-2.14-3.875 0-2.074.543-4.934 2.808-4.934ZM95.648 63.64h3.504v-.168c-1.058 0-1.058-1.195-1.058-1.875v-6.433c0-.57-.11-.766-.348-.766-.223 0-.43.305-.832.598-.375.277-.93.543-1.266.543v.168c.516 0 .641-.157.875-.157.184 0 .184.239.184.614v5.433c0 .68 0 1.875-1.059 1.875Zm.891-9.976a.788.788 0 0 0 .527.218c.25 0 .528-.125.778-.386.418-.43.5-.946.14-1.309a.69.69 0 0 0-.5-.207c-.25 0-.543.14-.793.39-.43.43-.5.958-.152 1.294ZM100.578 55.484c.184 0 .184.234.184.61v5.503c0 .68 0 1.875-1.059 1.875v.168h3.504v-.168c-1.058 0-1.058-1.195-1.058-1.875V57.18c.5-.625 2.03-2.363 3.836-2.363 1.058 0 1.058 1.195 1.058 1.875v6.004c0 .68.055 1.223.598 1.223.902 0 1.847-1.223 2.597-1.973l-.113-.168c-.539.613-1.039.906-1.36.906-.21 0-.335-.129-.335-.379v-5.347c0-1.32-.18-2.657-1.82-2.657-1.61 0-3.239 1.153-4.461 2.434v-1.64c0-.57-.11-.766-.348-.766-.223 0-.43.308-.832.597-.375.278-.93.543-1.266.543v.168c.516 0 .641-.152.875-.152ZM112.886 69.187c3 0 6.934-1.445 6.934-4.715 0-1.539-1.211-2.054-2.364-2.054-2.363 0-3.46 1.418-5.03 1.418-.403 0-.778-.18-.778-.684 0-.707 1.027-1.137 1.457-1.305.347.098.722.141 1.113.141 2.89 0 4.613-2.45 4.613-4.867 0-1.625-1-2.457-2.363-2.668 1.059 0 2.781.058 2.781-.457v-1.461h-.152c-.043.906-1.059 1.863-3.363 1.863-2.89 0-4.614 2.445-4.614 4.863 0 1.309.653 2.102 1.625 2.477-.68.348-1.43.805-1.418 1.652.016.64.528 1.028 1.141 1.196-.96.472-2.238 1.222-2.238 2.527 0 1.363 1.238 2.074 2.656 2.074Zm-.07-4.531c.125.012.234.027.36.027 1.667 0 2.905-1.195 4.78-1.195 1.043 0 1.57.418 1.57 1.11 0 2.808-3.542 3.992-5.585 3.992-1.586 0-2.543-.934-2.543-1.977 0-.695.445-1.43 1.418-1.957Zm2.457-9.91c1.64 0 2.254 1.43 2.254 2.875 0 1.933-.934 4.058-2.864 4.058-1.652 0-2.25-1.5-2.25-2.945 0-1.93.93-3.988 2.86-3.988ZM125.296 57.957h2.602v2.597h.566v-2.597h2.602v-.57h-2.602v-2.598h-.566v2.597h-2.602ZM137.378 63.472v.168h10.27l1.14-3.222h-.164c-.543 1.222-2.293 2.945-5.145 2.945h-3.656v-7.922h1.226c2.696 0 4.18-.14 4.653 1.25h.168l.543-1.527h-6.59v-5.145h3.547c1.582 0 3.836.07 4.683 1.906h.164v-2.183h-10.84v.168c1.06 0 1.06 1.195 1.06 1.875v9.812c0 .68 0 1.875-1.06 1.875ZM148.78 54.843c.945 0 1.32.641 1.679 1.543 1.238 3.086 1.836 4.657 2.879 7.352.043.125.11.195.168.195.055 0 .125-.07.164-.195 1.043-2.695 1.64-4.281 2.879-7.352.36-.902.722-1.543 1.484-1.543v-.168h-2.61v.168c.75 0 .86.223.86.555 0 .961-1.472 4.629-2.168 6.379-1.015-2.613-1.293-3.168-2.336-6.043-.18-.5-.011-.89.684-.89v-.169h-3.684ZM158.86 60.554c0 2.407 1.531 3.364 3.422 3.364 2.152 0 3.988-1.668 4.543-3.336l-.196-.055c-.304 1.027-2.152 2.836-3.695 2.836-2.031 0-2.71-1.695-2.71-3.559 0-2.613 1.71-5.226 4.085-5.226.945 0 1.348.613 1.348 1.445 0 1.711-1.864 4.602-3.934 4.602-.387 0-.637-.043-.832-.153l-.082.18c.316.168.555.207 1.098.207 1.668 0 4.933-1.598 4.933-4.488 0-1.387-1.254-1.973-2.53-1.973-3.185 0-5.45 3.266-5.45 6.156ZM168.818 55.484c.183 0 .183.234.183.61v5.503c0 .68 0 1.875-1.058 1.875v.168h3.503v-.168c-1.058 0-1.058-1.195-1.058-1.875V57.18c.5-.625 2.031-2.363 3.836-2.363 1.058 0 1.058 1.195 1.058 1.875v6.004c0 .68.055 1.223.598 1.223.902 0 1.848-1.223 2.598-1.973l-.114-.168c-.539.613-1.039.906-1.359.906-.21 0-.336-.129-.336-.379v-5.347c0-1.32-.18-2.657-1.82-2.657-1.61 0-3.239 1.153-4.461 2.434v-1.64c0-.57-.11-.766-.348-.766-.222 0-.43.308-.832.597-.375.278-.93.543-1.265.543v.168c.515 0 .64-.152.875-.152ZM179.844 54.855v7.84c0 .68.055 1.223.598 1.223.902 0 1.847-1.223 2.601-1.973l-.113-.168c-.543.613-1.043.906-1.363.906-.207 0-.332-.129-.332-.379v-7.449c.738.016 1.488.13 1.988.348v-.528h-1.988V50.34h-.278c0 1.167.07 4.335-2.488 4.335v.168ZM189.258 56.691c0 4.031 2.906 7.297 7.074 7.297 4.172 0 5.102-1.945 5.102-1.945v-1.891h-.168c-.723 1.945-2.028 3.488-3.989 3.488-3.988 0-6.863-3.82-6.863-7.949 0-2.473 1.484-5.894 5.461-5.894 1.805 0 3.531.878 4.39 2.863h.169l-.75-2.918s-1.168-.348-3.352-.348c-4.168 0-7.074 3.266-7.074 7.297ZM202.811 60.554c0 2.407 1.531 3.364 3.422 3.364 3.18 0 5.086-3.098 5.086-6.157 0-2.402-1.531-3.363-3.418-3.363-3.184 0-5.09 3.098-5.09 6.156Zm1.266-.668c0-2.43 1.183-5.183 3.324-5.183 1.805 0 2.64 1.879 2.64 3.699 0 2.43-1.183 5.184-3.324 5.184-1.82 0-2.64-1.88-2.64-3.7ZM213.297 55.484c.183 0 .183.234.183.61v5.503c0 .68 0 1.875-1.058 1.875v.168h3.503v-.168c-1.058 0-1.058-1.195-1.058-1.875V57.18c.5-.625 2.031-2.363 3.836-2.363 1.058 0 1.058 1.195 1.058 1.875v6.004c0 .68.055 1.223.598 1.223.902 0 1.848-1.223 2.598-1.973l-.114-.168c-.539.613-1.039.906-1.359.906-.21 0-.336-.129-.336-.379v-5.347c0-1.32-.18-2.657-1.82-2.657-1.61 0-3.238 1.153-4.461 2.434v-1.64c0-.57-.11-.766-.348-.766-.222 0-.43.308-.832.597-.375.278-.93.543-1.265.543v.168c.515 0 .64-.152.875-.152ZM224.323 54.855v7.84c0 .68.055 1.223.598 1.223.902 0 1.847-1.223 2.601-1.973l-.113-.168c-.543.613-1.043.906-1.363.906-.207 0-.332-.129-.332-.379v-7.449c.738.016 1.488.13 1.988.348v-.528h-1.988V50.34h-.278c0 1.167.07 4.335-2.488 4.335v.168ZM228.53 60.554c0 2.407 1.53 3.364 3.421 3.364 2.153 0 3.989-1.668 4.543-3.336l-.195-.055c-.305 1.027-2.152 2.836-3.695 2.836-2.032 0-2.711-1.695-2.711-3.559 0-2.613 1.71-5.226 4.086-5.226.945 0 1.347.613 1.347 1.445 0 1.711-1.863 4.602-3.933 4.602-.387 0-.637-.043-.832-.153l-.082.18c.316.168.554.207 1.097.207 1.668 0 4.934-1.598 4.934-4.488 0-1.387-1.254-1.973-2.531-1.973-3.184 0-5.45 3.266-5.45 6.156ZM238.487 55.484c.184 0 .184.234.184.61v5.503c0 .68 0 1.875-1.059 1.875v.168h3.504v-.168c-1.059 0-1.059-1.195-1.059-1.875V57.18c.5-.625 2.032-2.363 3.836-2.363 1.059 0 1.059 1.195 1.059 1.875v6.004c0 .68.055 1.223.598 1.223.902 0 1.847-1.223 2.597-1.973l-.113-.168c-.54.613-1.04.906-1.36.906-.21 0-.335-.129-.335-.379v-5.347c0-1.32-.18-2.657-1.82-2.657-1.61 0-3.239 1.153-4.462 2.434v-1.64c0-.57-.109-.766-.347-.766-.223 0-.43.308-.832.597-.375.278-.93.543-1.266.543v.168c.516 0 .64-.152.875-.152ZM249.514 54.855v7.84c0 .68.054 1.223.597 1.223.903 0 1.848-1.223 2.602-1.973l-.114-.168c-.542.613-1.042.906-1.363.906-.207 0-.332-.129-.332-.379v-7.449c.738.016 1.488.13 1.988.348v-.528h-1.988V50.34h-.277c0 1.167.07 4.335-2.488 4.335v.168ZM258.927 56.691c0 4.031 2.907 7.297 7.075 7.297 4.171 0 5.101-1.945 5.101-1.945v-1.891h-.168c-.723 1.945-2.027 3.488-3.988 3.488-3.988 0-6.863-3.82-6.863-7.949 0-2.473 1.484-5.894 5.46-5.894 1.805 0 3.532.878 4.391 2.863h.168l-.75-2.918s-1.168-.348-3.351-.348c-4.168 0-7.075 3.266-7.075 7.297ZM275.43 63.64v-.168c-1.059 0-1.059-1.195-1.059-1.875v-2.375s.473-3.699 3.614-3.699c.988 0 1.46.684 1.46 1.238h.169v-2.113s-.375-.25-1.157-.25c-1.722 0-3.418 1.766-4.086 4.004v-3.238c0-.57-.109-.766-.347-.766-.223 0-.43.305-.832.598-.375.277-.93.543-1.266.543v.168c.516 0 .64-.157.875-.157.184 0 .184.239.184.614v5.433c0 .68 0 1.875-1.059 1.875v.168ZM280.716 60.554c0 2.407 1.53 3.364 3.421 3.364 2.153 0 3.989-1.668 4.543-3.336l-.195-.055c-.305 1.027-2.152 2.836-3.695 2.836-2.031 0-2.711-1.695-2.711-3.559 0-2.613 1.71-5.226 4.086-5.226.945 0 1.347.613 1.347 1.445 0 1.711-1.863 4.602-3.933 4.602-.387 0-.637-.043-.832-.153l-.082.18c.316.168.554.207 1.097.207 1.668 0 4.934-1.598 4.934-4.488 0-1.387-1.254-1.973-2.531-1.973-3.184 0-5.45 3.266-5.45 6.156ZM290.076 61.445c0 2.402 1.53 2.488 2.168 2.488 2.003-.015 3.433-2.613 4.156-4.324v3.102c0 .68.054 1.222.597 1.222.903 0 1.848-1.222 2.598-1.972l-.11-.168c-.542.609-1.042.902-1.363.902-.207 0-.332-.125-.332-.375v-5.95c0-.679 0-1.527 1.055-1.527v-.168h-2.695c-3.184 0-6.074 3.88-6.074 6.77Zm1.183-.113c0-3.403 2.516-6.364 4.656-6.364h.485v3.961c-.582 1.446-1.988 4.364-3.809 4.364-.75 0-1.332-.989-1.332-1.961ZM300.964 54.855v7.84c0 .68.054 1.223.597 1.223.903 0 1.848-1.223 2.602-1.973l-.113-.168c-.543.613-1.043.906-1.364.906-.207 0-.332-.129-.332-.379v-7.449c.739.016 1.489.13 1.989.348v-.528h-1.989V50.34h-.277c0 1.167.07 4.335-2.488 4.335v.168ZM304.615 63.64h3.504v-.168c-1.058 0-1.058-1.195-1.058-1.875v-6.433c0-.57-.11-.766-.348-.766-.223 0-.43.305-.832.598-.375.277-.93.543-1.266.543v.168c.516 0 .64-.157.875-.157.184 0 .184.239.184.614v5.433c0 .68 0 1.875-1.059 1.875Zm.89-9.976a.788.788 0 0 0 .528.218c.25 0 .528-.125.778-.386.418-.43.5-.946.14-1.309a.69.69 0 0 0-.5-.207c-.25 0-.543.14-.793.39-.43.43-.5.958-.152 1.294ZM309.225 60.554c0 2.407 1.531 3.364 3.422 3.364 3.18 0 5.086-3.098 5.086-6.157 0-2.402-1.532-3.363-3.418-3.363-3.184 0-5.09 3.098-5.09 6.156Zm1.266-.668c0-2.43 1.183-5.183 3.324-5.183 1.804 0 2.64 1.879 2.64 3.699 0 2.43-1.183 5.184-3.324 5.184-1.82 0-2.64-1.88-2.64-3.7ZM319.71 55.484c.184 0 .184.234.184.61v5.503c0 .68 0 1.875-1.059 1.875v.168h3.504v-.168c-1.058 0-1.058-1.195-1.058-1.875V57.18c.5-.625 2.03-2.363 3.836-2.363 1.058 0 1.058 1.195 1.058 1.875v6.004c0 .68.055 1.223.598 1.223.902 0 1.847-1.223 2.597-1.973l-.113-.168c-.539.613-1.039.906-1.36.906-.21 0-.335-.129-.335-.379v-5.347c0-1.32-.18-2.657-1.82-2.657-1.61 0-3.239 1.153-4.461 2.434v-1.64c0-.57-.11-.766-.348-.766-.223 0-.43.308-.832.597-.375.278-.93.543-1.266.543v.168c.516 0 .64-.152.875-.152Zm0 0"/></svg>