<svg xmlns="http://www.w3.org/2000/svg" width="500" viewBox="0 0 375 259.5" height="346" version="1.0"><defs><clipPath id="a"><path d="M.36.2h374.277v229.808H.359zm0 0"/></clipPath><clipPath id="b"><path d="M133.445 210H147v46h-13.555zm0 0"/></clipPath><clipPath id="c"><path d="M144 93h95v165.973h-95zm0 0"/></clipPath><clipPath id="d"><path d="M165 257h2v1.973h-2zm0 0"/></clipPath><clipPath id="e"><path d="M227 211h14.234v3H227zm0 0"/></clipPath></defs><g clip-path="url(#a)"><path fill="#f8f0de" d="M187.688 61.324c43.726 0 79.214 35.504 79.214 79.246 0 43.746-35.488 79.25-79.214 79.25-43.727 0-79.22-35.504-79.22-79.25 0-43.742 35.493-79.246 79.22-79.246zm0-10.187c49.34 0 89.398 40.074 89.398 89.433 0 49.364-39.98 89.438-89.399 89.438-49.343 0-89.398-40-89.398-89.438 0-49.36 40.055-89.433 89.398-89.433zm186.808 42.468c-3.441-24.043-24.258-42.695-49.191-42.695h-72.852c2.172 3.149 4.192 6.442 5.914 9.887h67.012c19.094 0 35.191 13.633 39.012 31.687 3.445.223 6.812.598 10.105 1.121zM50.07 60.797h67.012c1.723-3.445 3.668-6.738 5.914-9.887H50.07C23.863 50.91 2.223 71.434.504 97.203h9.883c1.797-20.3 18.941-36.406 39.683-36.406zm3.145-27.563h27.027v7.79c2.32 0 4.567.226 6.813.449v-14.98H46.477v14.605h6.812v-7.864zm207.25 7.79-3.82-9.364c-1.946-4.719-6.739-18.426-11.305-20.973-.75-.374-1.496-.523-2.32-.523H132.355c-.824 0-1.574.149-2.32.524-4.566 2.546-9.36 16.253-11.308 20.972l-3.817 9.438h-10.707l5.317-13.184C115.285 13.832 119.777.2 132.28.2h110.664c12.504 0 16.996 13.559 22.762 27.715l5.39 13.184h-10.632zm26.133 29.585v18.727h33.617V70.609zm5.914 5.918h21.863v6.891h-21.863zm0 0" fill-rule="evenodd"/></g><g clip-path="url(#b)"><path fill="#f8f0de" d="M139.816 255.203c-1.859-.027-3.625-.96-4.816-2.375-.84-1.918-.426-4.351-.805-6.43-.203-4.753-.746-9.515-.433-14.277-.059-11.156 3.453-5.84 4.031-12.836.133-2.7.035-5.402-.031-8.101 0-.04-.004-.079-.004-.118.066-.691 1.18-.644 1.144.079.008.246.016.492.028.742.062 2.136.11 4.277.047 6.422-.16 8.738-4.176 3.156-4.043 13.398-.125 1.555-.141 3.106-.106 4.656.024.953.067 1.91.117 2.864.114 2.066.266 4.136.325 6.207.207 2.144.324 4.3.535 6.445.894 1.492 2.828 2.25 4.527 2.172 2.629-.016 4.023-1.348 4.867-1.801.352-.191.61-.23.82.043.215.316.118.574-.093.797l-.035.035c-.09.09-.2.172-.305.25-.172.125-.348.234-.473.344-1.508 1.078-3.437 1.484-5.265 1.484h-.032"/></g><path fill="#f8f0de" d="M145.586 253.375c-.465-.164-.453-.64-.387-1.125.043-.316.11-.637.082-.883.078-1.172.137-2.351.192-3.527.015-.492.035-.985.058-1.477.008-.238.02-.476.035-.718.211-4.012.657-8.024.63-12.036a39.865 39.865 0 0 0-.196-3.882c-.066-2.383-1.46-4.063-2.895-5.79-.898-1.613-.605-3.582-.675-5.355-.012-2.316-.09-4.633-.067-6.95 0-.105 0-.214.004-.323-.148-.582.457-1.196.977-.711a.885.885 0 0 1 .11.195c.19.48-.009 1.094.05 1.598.004 2.41.09 4.812.082 7.222-.395 5.965 3.48 4.117 3.66 11.168.379 5.235-.351 10.446-.562 15.664-.098 2.086-.18 4.172-.352 6.254a14.543 14.543 0 0 0-.7.691.22.22 0 0 1-.046-.015"/><path fill="#f8f0de" d="M146.676 232.777c.097.336-.102.614-.48.832-1.22.715-4.29.86-5.036.825-1.305-.102-2.676-.133-3.879-.66a4.579 4.579 0 0 1-.73-.399c-.89-.262-.223-1.555.535-1.023.012.011.023.02.035.027 1.102.746 2.461.754 3.742.883 1.719.105 3.469-.133 5.059-.793a.572.572 0 0 1 .254-.043.57.57 0 0 1 .5.351"/><path fill="#f8f0de" d="M145.656 245.793a.642.642 0 0 1-.125.57c-.625.793-3.027.977-3.742.864-5.613-.774-4.625-3.258-5.094-7.516-.023-.203-.05-.414-.078-.625l-.07-.527a74.663 74.663 0 0 1-.188-1.664c-.035-.34-.066-.684-.097-1.024a50.196 50.196 0 0 1-.157-2.656c-.199-.727-.015-1.59.883-1.05a.938.938 0 0 1 .133.214c.184.387.11.879.156 1.3 0 .032.004.063.004.094.063 1.653.235 3.301.453 4.942.137 1.191.239 2.39.348 3.586.164.828-.11 1.875.52 2.535 1.773 1.312 4.316 1.71 6.3.648a.577.577 0 0 1 .754.309M143.082 250.379c.477.082 1.25.059 1.176.75a.586.586 0 0 1-.649.492c-1.433-.098-2.78-.7-3.73-1.781-.856.89-1.563 2.308-3.04 2.097a.583.583 0 0 1-.491-.652c.074-.578.668-.437 1.07-.566.828-.297 1.047-1.336 1.758-1.801 1.453-.941 2.226 1.48 3.906 1.46M140.262 210.938c.59-.098 2.515-.274 2.222-1.125-.902-.735-3.191-.383-3.894.523.043.05.082.11.11.172.01.023.019.05.027.074.511.094.972.465 1.535.356zm-2.137-1.797c1.516-1.235 6.332-1.493 5.438 1.496a2.23 2.23 0 0 1-.11.156c-.281.375-.66.644-1.09.84-.804.363-1.777.457-2.605.457a2.98 2.98 0 0 1-.832-.203 3.781 3.781 0 0 1-.473-.23.563.563 0 0 1-.262-.345.962.962 0 0 1-.43-.128c-.656-.407-.292-1.649.364-2.043"/><path fill="#f8f0de" d="M136.547 238.559c1.055-.68 1.379 1.035.148 1.152a1.916 1.916 0 0 1-.78-.102 1.864 1.864 0 0 1-.97-.382c-.894-.692-1.164-2.122-.117-2.864a.792.792 0 0 1 .07-.05c.559-.426 1.04-.52 1.364-.442.511.121.644.668.097 1.024-.027.02-.054.039-.086.054-1.507.313-1.105 1.531.239 1.637a.215.215 0 0 1 .035-.027"/><g clip-path="url(#c)"><path fill="#f8f0de" d="M162.797 255.797c2.484-1.496 3.305-2.34 3.516-3.543-.297.18-.61.336-.938.465-2.121.672-4.43.851-6.645.906-1.578-.074-2.066-1.816-.82-2.762 1.262-.722 2.778-1.304 3.227-2.86 1.12-4.41.55-9.132.129-13.616-.313-2.239-.856-4.457-.707-6.727.09-.562-.02-1.222.046-1.808-1.792-.27-3.511-.872-4.14-2.575.043-.894.137-1.789.254-2.687-1.094-.25-2.211-.418-3.309-.668-.039.012-.262-.164-.328-.266-.008-.011-.012-.023-.02-.035-.015-.035-.027-.066-.042-.098l-.07-.18c-.044-.152-.09-.3-.137-.448l-.036-.106c-.16-10.434.684-20.867 2.598-31.086.977-5.223 1.156-12.152 6.395-15.012 1.898-.816 3.972-.808 6.023-.8.539.004 1.074.004 1.602-.008-3.145-6.367-5.254-13.227-7.192-20.047-2.012-6.637-1.59-11.559-7.308-16.383-.63.625-1.395 1.074-2.254 1.121-.028.336-.11.7-.106.953a50.772 50.772 0 0 0-.472 4.286c-.137 2.09-.176 4.187-.215 6.28.02.044.035.095.043.145.968 1.184 2.367 1.836 3.48 2.844 1.211 2.559-5.351 2.344-6.762 2.172-1.18-.164-2.386-.402-3.484-.875-.758-.371-1.473-1.484-.844-2.25.422-.379 1.043-.406 1.528-.676.902-.457 1.875-.879 2.523-1.656.82-.98.945-2.996.879-3.59.32-2.867.488-5.762.562-8.64a.492.492 0 0 0 .012-.04c-2.844-2.359-3.222-8.109-3.258-11.37-.214-4.653.7-9.446 1.723-13.677.145-.597 1.227-.793 1.652-.796 2.301-.02 3.715-.118 5.528.246 2.285.453 4.199 1.785 4.234 1.789 1.395.453-.125 5.531-.094 6.883 1.68.972 3.465 8.46 3.844 9.949.09.324-.031 1.12.106 1.355.562.985 1.011 2.024 1.445 3.067.914 1.918 1.457 3.972 2.133 5.98 1.14 2.973 1.953 6.125 3.004 9.117a92.045 92.045 0 0 0 2.02 5.512 84.503 84.503 0 0 1 1.687 4.746c.086.055.16.14.207.262.257.64.57 1.254.859 1.875.082.36.43.89.68 1.406.543-4.598 1.488-9.168 2.011-12.984 1.032-4.871 1.176-10.414 4.18-14.543 2.129-1.48 4.606-2.625 7.129-3.215.898-.188 1.8-.375 2.707-.543.246-.047.484.105.594.32.031-.07.066-.14.101-.21 1.036-2.481 3.371-4 4.801-6.208 1.184-2.09 3.133-4.394 2.332-6.945-.855-1.898-3.492-2.04-4.726-3.684-1.86-2.043-2.852-4.644-3.036-7.328-.289.676-.59 1.348-.968 1.973-.953 1.496-2.453 2.5-3.844 3.539.7 2.016 3.555 1.316 1.738 4.406.371.285.621.594.664.91.25.016.492.032.688-.004.144.004.316-.03.488-.062.441-.086.906-.172 1.07.344.11 1.105-1.554.804-2.27.89h-.21a3.597 3.597 0 0 1-.356-.004c-.156.598.207 1.192.29 1.801.011.793.257 1.547 1.046 1.867.848.414 1.735.805 2.684.871.437.06.89.02 1.344-.019.578-.055 1.156-.106 1.683.059.864 1.207-1.054 1.16-2.308 1.117-.356-.012-.657-.024-.828-.008-1.641-.234-3.645-.809-4.504-2.356-.211-1.43-1.114-3.113-.125-4.421-1.578-1.184 1.12-2.473-.524-3.075-.941-.523-2.004-1.586-1.644-2.757.906-1.192 2.46-1.774 3.398-2.989 1.254-1.347 1.457-3.289 2.52-4.754l.058-.082c.102-.757.266-1.507.492-2.242.301-1.144 1.274-5.07 2.7-5.222.382-.278 1.039-.372 1.386-.626 3.922-2.238 8.508-2.863 12.91-1.953 4.438.973 9.04 2.368 12.669 5.2 2.652 2.64 4.046 6.273 5.52 9.656 1.788 5.12.894 12.156 6.398 15.05 3.246 1.985 3.8 7.7 3.507 11.188-.324 3.152-2.574 5.559-3.55 8.477-.579 1.332-.211 2.683.855 3.632.969 1.153 1.887 2.356 2.594 3.688 1.761 2.953 1.008 6.492-.785 9.238-.516 1-.973 2.055-1.797 2.852-.524.61-1.317.965-1.703 1.687-.243.438-.305 1.258-.63 1.684-.042.3-.335.633-.863.742-.027.684-.125 1.414-.027 1.79.121 1.374.313 2.745.582 4.097.914 3.695 2.242 7.328 2.816 11.094.036.101.063.21.09.328.164.015.332.035.496.054a.776.776 0 0 1 .207-.093c.2-.008.344.058.454.187.34.05.671.113 1.004.184 1.933 2.644.308 6.406-.344 9.297-.98 3.582-1.813 7.214-3.399 10.593-.422.809-.832 1.625-1.242 2.43-.004.008-.012.012-.016.02-.109.18-.21.363-.316.546a6.263 6.263 0 0 0-.285.56c-.02.042-.035.081-.055.124-.02.031-.035.066-.054.098-.207.367-.403.738-.602 1.11-.145.269-.29.534-.434.804a28.127 28.127 0 0 1-.945 1.48c-.23.305-.453.61-.676.922-.054.074-.105.149-.16.223-.008.004-.012.004-.02.004-1.769 2.191-4.027 4.37-7.367 4.941-.793.098-5.878.535-6.152.563-.578.054-1.152.082-1.734.078-4.344.183-8.524-.73-12.492-2.297-.012.012-.028.023-.043.039-.258-.133-.516-.262-.774-.39-.387-.204-.77-.41-1.144-.637-.196-.118-.391-.235-.594-.336-.168-.082-.332-.16-.496-.243-.188-.101-.367-.218-.555-.312-.207-.102-.41-.203-.621-.293-.387-.168-.777-.324-1.164-.492-.258-.133-.512-.274-.766-.41-.144-.078-.289-.157-.433-.239a2.634 2.634 0 0 0-.461-.222 74.048 74.048 0 0 1-5.637-3.766c-4.863-3.414-9.648-7.125-13.613-11.574.062.277.129.555.195.832 1.176 4.758 2.418 9.531 3.227 14.355.14.79 2.207 13.446 1.105 13.707-.43.102-1.707.297-2.742.286-.191 1.109-.445 2.226-.375 3.355-.078 2.965 2.59 4.508 4.152 6.625 1.547 2.395.508 5.5-1.676 7.11-5.164 2.702-1.507 8.156-3.953 12.363-.773 1.566-2.332 2.52-4.062 2.57-2.067.215-4.133.484-6.2.648-.09.008-.18.012-.265.012-2.086 0-3.207-1.82-1.078-3.156zm4.316-26.258c.805 4.902.543 9.879.305 14.816-.043 1.68-.11 3.36-.063 5.04.114 1.34.508 2.77-.148 4.03-.805 2.29-7.84 4.692-2.227 4.266.063.016.125.02.192.02.133 0 .266-.024.398-.047.032-.008.067-.012.098-.016.184-.003.367-.027.547-.035a.828.828 0 0 0 .172-.023.554.554 0 0 0 .156-.067l.332-.035c.16-.004.32-.004.477-.004.117 0 .238-.004.355-.007.152-.008.309-.032.465-.047.332-.024.668-.078.996-.14.934-.095 1.855-.235 2.738-.536 3.324-2.164 1.95-6.707 2.469-10.024.23-3.593 5.262-4.144 5.258-7.835-.262-4.02-5.246-4.368-4.918-9.868.086-.48.105-1.851.34-2.793-.836-.03-1.555-.066-1.828-.011-1.489-.02-5.192.03-5.34.03v-.01c-.52 0-1.04 0-1.559-.009.438 1.086.719 2.88.785 3.305zm-4.87 3.598c.577 3.61.695 7.273.628 10.925-.086 2.364-.3 5.137-2.36 6.66-.616.622-1.948.63-2.171 1.563.992.504 2.183-.004 3.242-.031 1.602-.14 3.324-.297 4.637-1.324a.563.563 0 0 1 .144-.086c-.039-.79-.14-1.758-.172-3.035 0-4.914.606-9.825.16-14.735-.14-2.332-.492-4.66-1.23-6.867-.484-.016-.969-.039-1.453-.066-.578-.055-1.227-.094-1.898-.157-.192 2.403-.004 4.793.472 7.153zm-1.013-51.723c-.59 1.703-.62 5.297-.812 7.793-.613 8.02-1.371 16.023-1.758 24.059-.133 2.261-.394 4.511-.672 6.757.075 1.145-1.02 2.93.117 3.68 2.192 1.242 5.325 1.434 8.45 1.41-.18-1.527-.196-2.957-.375-4.457-.133-1.87-.442-3.722-.493-5.601-.132-3.008-.707-5.97-.91-8.973-.3-2.621-.445-5.254-.535-7.89-.16-2.169-.457-4.36-.11-6.528.188-1.105.415-2.508.634-3.605.238-1.23.582-2.149 1.23-3.239.625-1.11 1.535-2.156 2.774-2.554 1.746-.47 3.703-.352 5.359.379 1.762.886 3.012 2.464 4.281 3.925 1.207 1.496 2.5 2.914 3.723 4.39.988 1.169 1.918 2.403 3.078 3.407 2.676 2.313 5.64 4.293 8.758 5.95 1.133.558 2.312 1.007 3.453 1.554 3.062 1.535 6.254 3.066 9.601 3.809.95.199 1.918.203 2.887.129 1.02-.09 2.059-.168 3.031-.512.883-.336 1.672-.863 2.508-1.29 1.52-.773 2.93-1.78 4.078-3.042 1.66-1.8 1.844-2.969 2.313-5.29.37-1.593.48-3.292.988-4.855-1.34-.472-.758-1.644-.672-2.953.09-.953.168-1.906.246-2.86.047-.19.036-.437.02-.69a395.64 395.64 0 0 1-7.11-.81c-.648-.046-1.296-.179-1.94-.331-.04.504-.352 1.129-.4 1.539-.53 1.16-.327 4.11-2.238 3.562-.964-.28-.902-1.28-.699-2.074.176-1.2.461-2.379.695-3.566a5.948 5.948 0 0 0-1.394.011.836.836 0 0 1-.207.098c-.399.774-.875 1.54-1.16 2.375-.617 1.39-1.223 2.785-1.766 4.203a.513.513 0 0 1-.234.27c2.312 1.101 4.578 2.293 6.742 3.687 1.59.957 3.316 1.672 4.863 2.707.633.367.063 1.387-.582.996-3.777-2.082-7.5-4.386-11.355-6.3-7.426-3.309-14.942-6.547-21.875-10.813-.23-.152-.551-.25-.813-.394-1.086.554-2.14.808-3.137.683-.917-.422-1.91-1.105-2.546-1.98-.676.066-1.703-.54-2.278-.567-1.879-.523-3.96-.933-5.949-.933-3.309 0-6.531 1.062-7.809 4.734zm6.813 2.606c-.707.671-1.273 1.117-1.61 2.027-.308.941-.347 1.289-.601 2.246-.176.687-.328 2.445-.484 3.14-.496 2.399-.04 4.844.07 7.262.082 3.684.504 7.348.871 11.012.149 1.27.387 2.535.453 3.813.113 1.886.192 3.773.461 5.648.152 1.816.29 3.637.32 5.46 0 .157.012.313.028.474.11-.004.222-.004.332-.008-.067-7.848-1.403-15.742-1.914-23.61-.27-3.261.191-6.496.683-9.714.352-1.954.598-4.083 1.809-5.715 1.574-1.813 4.332-1.371 5.937.164 2.57 1.894 4.364 4.586 6.57 6.844 2.72 2.496 5.516 4.996 8.673 6.921 5.566 3.192 11.39 6.141 17.683 7.54 4.031.953 8.016.64 11.555-1.649 3.976-1.797 3.746-6.445 4.375-10.125.836-3.387 2.36-6.656 2.832-10.117.023-.293-.004-.684.125-.946l-.871-.082c.137 1.036-.172 2.735-.11 3.293-.074 1.008-.152 2.813-1.25 3.067-.125.36-.222.73-.292 1.105-.36 1.817-.653 3.645-1.07 5.45-.126.585-.259 1.175-.524 1.718-.52 1.157-1.344 2.137-2.223 3.04-1.309 1.292-2.875 2.265-4.508 3.085-1.066.621-2.18 1.219-3.422 1.375-1.894.282-3.847.446-5.722-.05-1.801-.465-3.555-1.125-5.27-1.852-1.687-.715-3.289-1.617-4.965-2.352-2.422-.964-4.683-2.257-6.843-3.71-1.86-1.223-3.653-2.56-5.278-4.087-1.144-1.12-2.105-2.414-3.148-3.625-.813-.964-1.656-1.898-2.465-2.87-1.02-1.235-2.035-2.485-3.227-3.56-.882-.796-2.003-1.32-3.18-1.417a9.658 9.658 0 0 0-1.124-.074c-.977 0-1.957.195-2.676.879zm5.312 41.05c1.602.004 3.204.008 4.801-.023h.012c-.262-9.77-2.79-19.262-5.031-28.711-.094-.399-.653-2.668-.625-2.703-.344-1.399-.754-2.774-1.399-4.059-.59-.75.63-1.523.977-.597a.344.344 0 0 1-.02-.059l-.011-.02a.012.012 0 0 1 .004.008c.914 1.778 1.417 3.715 1.855 5.664 3.582 4.746 8.414 8.414 13.125 11.97 5.035 3.636 10.254 7.12 16.184 9.105 3.566 1.238 7.343 1.605 11.078 1.437.32-.035 3.445-.375 3.863-.398 4.93-.286 6.953-1.223 9.535-4.73-1.64-3.048.09-11.895.606-14.895 1.304-1.38 4.441-.727 6.214-.711a.54.54 0 0 1 .262.097c.774-3.539 2.625-7.148 1.735-10.816a.527.527 0 0 0-.184-.176c.012 1.012-.25 2.3-.238 2.785-.32 1.274-.13 4.07-2.036 3.836-.761-.054-1.468-.695-1.09-1.488.364-1.277.59-2.543.712-3.86.109-.328.043-.898-.004-1.464-2.153-.133-4.301-.297-6.446-.485a.504.504 0 0 1 .032.203c-.028.653-.055 1.31-.188 1.95-1.113 4.355-2.922 8.511-3.27 13.035-.328 4.867-3.68 7.086-7.933 8.555-7.133 2.292-15.992-1.942-22.371-5.102-6.484-3.16-12.211-7.785-16.754-13.395-4.54-5.187-8.055-6.125-8.965 1.957-.383 2.774-.512 5.551-.71 8.364-.126 1.695 2.382 19.222 1.898 24.722.902-.02 1.78-.043 2.613-.043.621 0 1.215.012 1.77.047zm-16.363-39.789c-.558 2.473-.762 5-1.02 7.516-.628 3.652-1.144 7.32-1.355 11.02-.195 3.101-.578 6.19-.633 9.3-.05 1.895-.05 3.79-.05 5.688.289.047.632.132 1.039.27.441.19 1.289.155 1.91.32.191-1.38.394-2.758.48-4.141.489-8.742 1.242-17.457 1.91-26.18.16-.644.336-4.77.747-6.785.37-1.832 1.8-4 2.375-4.539 2.5-2.34 5.789-2.527 9.058-2.04a62.309 62.309 0 0 1-1.48-2.69c-.153.007-.305.007-.453.007-.141 0-.278 0-.418.004a28.832 28.832 0 0 0-1.864-.066h-.004c-8.257 0-8.55 4.441-10.242 12.316zm72.301 12.387c-.363 4.043-1.777 9.074-.8 13.066 2.554-4.144 4.859-8.5 6.05-13.246a.526.526 0 0 1-.176.004c-.879-.05-1.797-.144-2.707-.144-.808 0-1.61.074-2.367.32zm5.629-12.313c.023 1.915-.621 4.793-.84 5.54.055.015.106.027.16.039.028.007.055.011.082.015.54-1.347.63-2.851.781-4.285.102-.336.024-.84-.007-1.316-.059.004-.118.007-.176.007zm-11.824 4.297c.054.032.113.055.168.075.05-.106.105-.207.164-.313a.544.544 0 0 1 .504-.281c.23-.985.152-2.09.23-3.09.098-.406-.059-1.05-.016-1.555-.18-.015-.363-.035-.546-.05.011 1.789-.497 4.582-.504 5.214zm-38.95-10.898c1.813.934 3.5 2.2 5.293 3.101 3.325 1.696 6.73 3.223 10.082 4.864 1.887.816 3.778 1.629 5.637 2.496-.035-.285.07-.68.23-1.106-3.367-1.812-6.714-3.664-10.195-5.257-3.226-1.602-6.168-3.707-9.414-5.27-.043 0-.082 0-.12-.008-.509.442-1.013.84-1.513 1.18zm26.903 8.394c.008.008.015.012.02.016.011.004.023.012.038.016.395-1.313.723-2.653 1.067-3.98.008-.098.027-.2.058-.298l-.37-.082c-.274 1.442-.622 2.871-.813 4.328zm-24.516-10.375c2.988 1.168 5.7 3.344 8.555 4.743 3.664 1.699 7.222 3.609 10.77 5.535.288-.598.566-1.14.632-1.438.59-1.261 1.028-2.617 1.852-3.75a.081.081 0 0 1 .023-.039c-.37-3.152-1.363-6.168-2.59-9.082-.824-1.926-1.41-4.015-2.644-5.726-2.102-1.305-4.45-1.59-5.668-4.266a4.773 4.773 0 0 1-.14-.285c-3.243 4.976-7.079 10.738-10.79 14.308zM190 132.066c-2.605.461-5.023 1.579-7.262 2.965-1.031.805-1.27 2.262-1.8 3.406-1.887 6.356-2.516 12.97-3.66 19.481-.891 5.262-1.301 10.668-.477 15.969.129.937.449 1.738.781 2.539.324.273.262.793.613 1.07.82.809 1.82 2.047 3.094 1.465 4.457-1.953 7.352-6.234 10.266-9.957 1.289-2.078 2.73-4.05 4.156-6.035 1.887-2.926 3.598-5.969 5.77-8.703.601-.774 1.238-1.516 1.835-2.29a.57.57 0 0 1 .422-.222c-1.191-1.559-1.851-3.711-1.96-5.504.097-2.074-1.012-4.059-2.798-5.098-.652-.257-1.351-.422-2.054-.574-.988 1.274-1.797 2.68-2.63 4.055-2.382 4.226-6.374 7.406-8.374 11.84a.502.502 0 0 1-.156.28c.277 6.509.43 14.907-1.04 14.407-.425-.125-.476-.574-.351-.941.254-1.367.328-2.656.348-4.02a227.187 227.187 0 0 0-.434-16.554c.031-2.868-.16-5.766.168-8.618.36-1.902 3.93-2.152 5.477-2.89a5.82 5.82 0 0 0 1.691-.98.557.557 0 0 1 .125-.173c-.547-1.695-.469-3.617.113-5.304-.496.273-1.383.187-1.863.386zm-33.871 1.672a6.872 6.872 0 0 1-.524.864c3.98 3.101 5.864 7.843 6.606 12.726.566 3.059 1.777 5.945 2.488 8.965 1.078 4.113 2.707 8.039 4.297 11.969.762 1.668 1.586 3.308 2.356 4.972.328.703.863 1.93 1.222 2.668 1.375.262 2.727.614 4 .946-1.578-3.891-1.652-8.676-1.18-13.512a.588.588 0 0 1-.59-.234l-.034-.094c.003.012.011.023.015.039-.05-.129-.094-.262-.14-.39l-.106-.286a1.654 1.654 0 0 0-.05-.148l.023.066c-.043-.129-.102-.25-.149-.379.008.031.024.063.035.098-.035-.094-.074-.188-.109-.278-.031-.082-.062-.164-.098-.242.004.008.008.02.016.032-.012-.024-.02-.047-.031-.07v-.005c-.004 0-.004 0-.004-.004a.066.066 0 0 0-.008-.02c.004.009.004.013.008.017-.012-.028-.027-.055-.04-.086v-.004l-.003-.004c-.012-.028-.024-.051-.031-.078.007.027.02.05.03.078-.054-.125-.116-.246-.175-.367-.047-.11-.09-.223-.133-.336a3.42 3.42 0 0 0-.21-.508 6.607 6.607 0 0 1-.243-.504c-.129-.328-.222-.668-.375-.988l.024.047c-.078-.16-.145-.325-.211-.489a4.567 4.567 0 0 0-.301-.66c-.125-.215-.234-.437-.344-.66a10.154 10.154 0 0 0-.172-.36c-.16-.449-.324-.898-.496-1.34-.785-2.093-1.664-4.214-2.336-6.331-1.187-3.407-2.14-6.887-3.398-10.266-.54-1.71-1.047-3.434-1.813-5.059-.523-1.23-1.027-2.48-1.77-3.597-.609-.89-1.35-1.68-1.972-2.555-.648-.914-1.266-1.863-1.766-2.867-.816-1.578-1.132-3.406-2.148-4.871-.7 2.441.367 4.957.91 7.336.45 1.597.223 3.273.504 4.894.016.336.34.637.145.965a.5.5 0 0 1-.493.238c-.273-.066-.449-.32-.57-.632-.187.457-.543.941-.656 1.304zm74.7 31.547a.537.537 0 0 1 .46.309c.055-.211.164-.434.234-.625.485-2.297 2.973-2.969 3.696-5.262.312-.48.582-.953.812-1.41a.693.693 0 0 1 .02-.125c.719-3.856-1.395-6.828-3.68-9.645-.035-.035-.062-.074-.094-.109 1.809 3.207.852 4.668-.129 6.95-.02.054-.039.109-.066.152v.003a14.405 14.405 0 0 0-.75 2.188c.055 2.355.996 4.687.066 7.012a.58.58 0 0 1-.707.402c-.8-.29-.195-1.191-.14-1.77.43-1.777-.344-3.5-.383-5.265-.055-1.106.402-2.098.887-3.078.047-1.875-.625-3.621-1.535-5.235.496 2.18.656 4.41-.422 6.457-.63 1.262-1.34 2.52-1.391 3.97-.059 1.3.117 2.64.691 3.816a.52.52 0 0 1-.168.656c.848.054 1.665.187 2.356.66a.367.367 0 0 1 .242-.05zm-20.22-68.566c.899.304 2.47 3.273 2.844 3.816 4.215 6.387 3.953 8.106 3.727 13.008 0 .117.004.234.007.352.258 2.128 1.13 4.203 2.184 6.054 1.121 1.617 2.703 2.824 3.945 4.336 2.016 2.645 2.196 7.61.735 10.559-.582 1.332-2.266 1.351-3.13 2.367-.605.789-.57 1.762.056 2.516a.533.533 0 0 1 .12.382l1 .97c1.352 1.593 2.548 3.39 3.317 5.343 1.457 3.851 2.66 9.445-1.629 11.875-.601 1.945.899 4.351 2.285 5.672.297.129.43.383.434.629.312.023.625.035.941.047a.58.58 0 0 1-.105-.172c-2.563-5.993 1.46-7.426 1.433-12.16-.187-1.782-.683-3.524-1.187-5.239-2.309-2.597-4.336-5.918-2.797-9.418.547-1.656 1.484-3.215 1.637-4.976-.137-3.211-1.078-6.457-2.38-9.364-.081-.14-.179-.3-.253-.464-4.973-5.192.48-13.375-4.008-21.254-.672-1.25-1.32-2.555-2.336-3.567a.588.588 0 0 1-.27-.488.901.901 0 0 1 .04-.11c-2.352-1.078-4.93-1.761-7.39-2.398.343.508.57 1.106.78 1.684zm13.004 56.785c-.957 1.219-2.449 2.121-2.71 3.781-.122.723-.184 1.55.261 2.18a.558.558 0 0 1 .125.367c1.41 1.305 1.316 3.68 3.465 4.438-1.59-1.75-2.95-4.59-1.918-6.633 3.027-1.88 3.129-4.735 2.45-7.672-.415 1.238-1.013 2.426-1.673 3.539zm-3.98 1.297c-.313 1.039-.54 2.14-.473 3.234.168.18.348.356.504.528-.25-2.063 1.238-4.18 2.824-5.465.91-1.391 1.617-2.98 2.012-4.598a.523.523 0 0 1 .266-.41l-.246-.766a11.803 11.803 0 0 0-.754-1.754c.445 5.64-1.907 4.637-4.133 9.23zm-20.805-59.086c-.18 1.062-.941 2.969-.95 3.496-.808 3.574.567 7.414 2.798 10.219 2.031 2.933 7.437 3.59 6.969 7.96-1.856 7.036-5.098 4.114-3.31 14.016 1.122 3.387 2.888 4.524 4.267 6.914a26.568 26.568 0 0 1 4.738 7.434c1.707 2.664 3.234 5.555 3.215 8.809.058.867.129 1.734.347 2.578a.525.525 0 0 1-.148.554c.351.18.707.344 1.066.5-1.129-2.347.508-5.48-.453-8.023-.574-1.75-1.87-3.164-2.398-4.926-.649-2.246.48-4.531.261-6.789-.671-2.887-4.171-3.418-5.792-5.535-3.215-4.856.484-6.406 2.656-9.895-.063-5.043-4.254-8.797-6.656-12.914-3.422-4.87-1.606-9.754-.762-15.058.047-.176.027-.375.008-.57-2.004.046-3.985.421-5.856 1.23zm11.332 47.027c1.063 2.266 3.477 4.211 2.75 6.985-.164.476-.496 1.75-.953 2.488.484.097.945.328 1.371.773 1.277 1.067 1.047 3.145 2.399 4.117-.5-2.613-.274-5.453-1.66-7.824-1.422-2.363-2.57-4.91-4.051-7.234.05.223.097.457.144.695zm-18.52-4.172c-7.968 3.692-5.913-.449-6.202 11.028-.004.582.101 2.422.218 4.793 1.324-2.364 3.38-4.344 4.961-6.524 1.988-2.375 3.297-5.086 5.082-7.562-1.078-.266-2.11-.621-2.949-1.375a6.38 6.38 0 0 1-.504-.785c-.2.183-.422.335-.605.425zm40.505-12.832c.328 1.711 1.585 3.028 2.156 4.645 1.219 3.43-.375 6.972-2.352 9.746-.957 2.043-.687 4.719.547 6.586 1.629 2.414 3.86 4.613 4.547 7.476-.078-1.859-.93-3.656-2.555-5.593-.96-1.254-2.414-2.438-2.133-4.196.344-3.168 2.817-5.53 3.586-8.562.774-2.844.055-5.797-.648-8.582-.547-1.703-2.063-2.563-3.41-3.547.035.68.156 1.363.262 2.027zm-21.708-21.875c-.742 3.465-.515 7.438 1.774 10.293 2.113 2.278 2.684 5.973 1.273 8.758-.07.148-.144.3-.226.445-.059.317-.188.555-.406.664-1.95 2.875-5.372 4.665-2.223 8.532 2.078 1.824 5.578 2.93 5.789 6.168.078 1.964-.719 3.906-.426 5.875.742 2.586 2.992 4.687 2.89 7.543-.003.605-.085 1.21-.171 1.816 1.543-3.406 5-3.512 3.68-10.086a.81.81 0 0 1 .129-.348 33.137 33.137 0 0 0-1.016-1.382c-2.313-2.391-5.371-4.801-5.016-8.512-.066-3.352 3.657-6.184 2.317-9.586-1.14-1.723-2.774-3.258-2.817-5.48a65.285 65.285 0 0 1 .032-5.079 9.555 9.555 0 0 1 .011-.945.58.58 0 0 1 .043-.223c.203-4.21.235-5.238-4.308-12.453-.09-.289-.414-.68-.758-1.086.09 1.696-.297 3.43-.57 5.086zm15.688 21.551c1.793 5.961 2.086 7.305-.383 13.023-.824 2.137-.004 4.41 1.317 6.133 1.925 2.27 3.836 4.602 4.746 7.5.039.176.105.453.175.774.172-.63.22-1.285.024-1.989-1.215-4.203-5.188-6.171-3.813-11.27 1.657-5.683 1.555-10.823-2.343-14.901.105.312.195.574.277.73zM193.16 102.57c-.617 2.637-.625 5.516.703 7.942 1.239 3.394 4.282 3.91 5.88 5.496a.836.836 0 0 1 .413.168c.742 1.043 1.094 2.316 1.38 3.543 1.339 7.09-2.602 8.656-2.477 12.511.918 4.028 6.296 5.352 6.554 9.66.266 2.165-.465 4.274-.582 6.419-.027 1.058-.136 2.136.082 3.18.012.038.02.077.024.116.328.31.703.59 1.144.829 1.383.652 2.969-.063 4.446-.243a.52.52 0 0 1 .046-.214c2.461-4.243.149-5.25-1.671-8.782-.524-1.285-.625-2.715-1.243-3.965-.023-.039-.05-.082-.078-.125-.16-.167-.32-.335-.488-.503-.242-.176-.309-.395-.262-.586-1.918-2.66-4.176-5.125-4.148-8.66-.883-4.93.836-6.891 2.18-8.786a.543.543 0 0 1-.145-.308c-.23-2.657-2.793-3.992-4.68-5.453-1.957-1.512-4.054-3.036-5.215-5.286-1-2.445-1.406-5.093-1.648-7.738-.066.27-.14.531-.215.785zm-47.933 48.34c1.867 1.688 6.707 1.528 9.03.723-1.046-.875-2.616-1.567-3.292-2.79a.519.519 0 0 1-.274-.488c.079-3.648.106-7.324.743-10.93.097-.26.074-.652.109-.995a4.86 4.86 0 0 1-.648-.22 68.296 68.296 0 0 1-.125 3.227 143.984 143.984 0 0 1-.657 7.102c-.164.613.063 1.352-.793 1.844-.015.008-.039-.02-.05-.008-.79.992-3.333 2.297-4.043 2.535zm55.171-30.176c-.832 2.114-2.058 4.102-3.476 5.868-1.234 1.421-2.727 2.656-3.524 4.402-1.136 2.164-1.21 4.965.118 7.055 1.273 1.144 3.172 1.16 4.742 1.668 2.039.359 3.543 2.164 4.32 3.992.352 1.91.45 4.066 1.2 5.86.097-3.485 1.835-7.302-.368-10.142-1.191-1.394-2.707-2.468-3.883-3.875-1.218-1.488-2.09-3.41-1.41-5.332.309-1.398 1.356-2.468 1.781-3.82.676-1.918.907-4.012.594-6.015-.027.113-.062.226-.094.34zm20.118-20.222c5.246 8.789-.73 17.312 4.5 21.902 2.191 1.879 4.27 4.168 4.91 7.07.726 2.836.406 5.836-.168 8.672-.344 1.246-.727 2.516-.637 3.824-.012 1.754.988 3.13 1.945 4.512-.972-2.074-1.175-4.52-.261-6.64 1.683-2.649 3.511-5.641 2.472-8.915-1.07-2.359-2.644-4.515-2.539-7.242-.004-.328-.05-.68-.011-1.011-2.84-3.09-2.938-7.782-3.848-11.727-1.012-3.777-2.797-7.477-5.18-10.582a14.075 14.075 0 0 0-2.304-1.781c.515.797.957 1.644 1.12 1.918zm-1.086 22.351c2.355 3.274-.89 6.746-1.711 9.942-.469 2.144.383 3.894 1.629 5.433.05-.761.375-1.504.953-2.066.726-.785 1.96-.848 2.62-1.688 1.411-2.59 1.036-5.898.106-8.593-2.191-3.04-4.613-4.344-5.941-7.887-.012 1.941 1.156 3.45 2.344 4.86zm-71.29 6.453c.512 4.153 4.11 9.336 7.126 3.59.379-.515.414-1.816 1.28-1.578l-.042-.32c-.11-1.559-.149-3.121-.629-4.625-.305-1.13-.656-2.32-.844-3.52-.011.012-.027.016-.043.024-.203.097-.46.078-.683.062-1.442-.117-5.332-.57-6.559-1.59-.187 2.672-.117 5.375.395 7.957zm11.184-7.136c.004.3-.187.48-.41.539a16.836 16.836 0 0 0 1.734 3.273c.418.664.915 1.274 1.41 1.883-.62-2.465-1.257-4.945-2.437-7.215a1.732 1.732 0 0 0-.207-.433c-.047.652-.078 1.3-.09 1.953zm-10.844-1.707c.555.441 1.305.53 1.97.722.945.243 1.905.426 2.866.59.536.113 1.11.145 1.625.34a8.288 8.288 0 0 1-.035-1.078.65.65 0 0 1-.207-.02c-1.484-.308-3.02-.804-4.523-.804-.57 0-1.137.07-1.696.25zm9.727.351c.14-2.453.703-4.886.828-7.332-.07.051-.14.098-.219.149-1.75.648-3.746.597-5.574.367-.828-.106-3.129-.778-4-1.735-.273 1.778-.691 3.274-.949 4.547-.176.871-.27 1.766-.371 2.66a3.58 3.58 0 0 1 1.64-.39c1.848-.113 3.657.418 5.446.824a.056.056 0 0 0 .023.008c.059-.281.137-.563.239-.844.375-.492.722-.691 1.042-.691.81 0 1.442 1.293 1.895 2.437zm47.586-25.418c-.938 5.653-2.648 9.805 1.14 14.934 1.997 3.008 4.422 5.762 5.672 9.191.102.25.254.715.391 1.25.305-1.672-.047-3.504-.918-4.922-1.41-1.613-2.453-3.484-2.875-5.605-1.332-4.473 1.727-9.09.207-13.477-.254-.554-.46-1.195-.969-1.574a.585.585 0 0 1-.48-.52c-.7-.097-1.402-.163-2.106-.187.012.328-.03.676-.062.91zm-10.316 1.79a.418.418 0 0 1-.075.07c-.523.445-.886 1.015-1.164 1.644.246.43.078 1.211.196 1.672.379 3.84.535 8.387 3.714 11.047 2.243 2.18 5.29 3.523 7.11 6.11.16.323.469.898.652 1.464.438-.887.672-1.898.442-3.27-1-2.398-4-2.894-5.641-4.746-2.988-3.066-4.863-7.664-4.004-11.957.164-.437.363-1.789.688-2.87-.641.331-1.368.703-1.918.835zM150.98 112.09c2.387.77 5.356 1.398 7.645.289-1.914-1.492-5.066-1.746-6.688-1.727-.285 0-1.738-.004-2.574.243v.027c.012-.004.024-.004.035-.004.2.371.957.969 1.582 1.172"/></g><path fill="#f8f0de" d="m202.328 240.055.012-.012a.158.158 0 0 0 .02.035.217.217 0 0 0-.032-.023M213.758 136.234c-1.055-1.875-1.281-4.312-.188-6.222.95-1.907 2.864-3.375 3.008-5.621.035-.797-.012-1.59-.086-2.383-.054-.453-.234-1.203.434-1.238.582.023.554.75.648 1.18.125 1.085.242 2.202.02 3.28-.36 2.122-2.133 3.563-3.059 5.422-.808 1.47-.617 3.258.063 4.735.246.34.367.8-.051 1.058a.585.585 0 0 1-.79-.21M204.41 144.883c-.453-3.645-3.914-5.285-6.41-7.434-2.898-2.062-5.016-5.902-3.773-9.472.117-.567.843-1.004 1.125-.301.062.472-.204.797-.258 1.238-1.14 8.176 9.504 8.606 10.457 15.813.105.73-1.035.902-1.14.156M173.055 224.582c-5.258-.023-10.848.258-15.489-2.656-.882-.7.25-1.492.961-.793 1.657 1.008 3.45 1.469 5.309 1.902 3.598.582 7.75.758 11.418.676 2.223-.055 3.613-1.117 3.914-.027.254 1.242-5.16.761-6.113.898M156.95 218.79c-.856-.106-5.25-1.09-3.114-2.204 1.031.46 2.113.914 3.27 1.059.738.093.578 1.253-.157 1.144M195.102 126.664c.003-3.25 1.566-6 2.918-8.836.367-.625-.243-1.652.44-1.98.806-.274.9.734.849 1.297-.243 2.093-1.754 3.78-2.38 5.77a14.93 14.93 0 0 0-.679 3.75c-.012.75-1.145.757-1.148 0M154.688 119.57a.64.64 0 0 0 .011.043c.012.02.024.043.063.106-.59-1-4.11-4.239-2.047-4.989.558-.109 1.07.286 1.527.56.754.495 1.535.944 2.32 1.397.758.458 1.418 1.04 2.09 1.614.239.203.301.55.102.808-.184.243-.566.309-.805.106-1.308-1.258-2.93-2.05-4.437-3.028.699 1.055 1.605 1.985 2.273 3.051.195.703-.855 1.032-1.097.332"/><path fill="#f8f0de" d="M154.402 120.43c-1.418-.578-2.808-1.18-4.125-1.97.23.388.914.517.746 1.083-.12.453-.687.535-1.007.25-.907-.492-1.77-2.523-.258-2.738 1.043.175 1.902.914 2.836 1.367.781.379 1.62.605 2.39 1.008.645.382.07 1.37-.582 1M188.547 120.133c-.742-.106-.59-1.235.156-1.145.742.043 1.54-.277 2.008-.87-.637-.376-2.793-1.36-2.844-2.122-.023-.394.45-.703.801-.531.598.418 1.14.914 1.809 1.23.52.278 1.226.5 1.449 1.102.168 1.52-2.102 2.488-3.38 2.336M209.766 186.984c-.735-.308-2.887-.55-2.875-1.515.246-.989 1.23-.176 1.812-.016.578.313 1.914.192 1.77 1.125a.586.586 0 0 1-.707.406M221.656 189.336c-2.988-.774-6.078-1.004-9.074-1.738-1-.274-.539-1.582.793-.996 2.844.632 5.762.886 8.586 1.62.719.192.41 1.317-.305 1.114M233.082 190.41c-2.363-.094-4.719-.3-7.074-.484-.715.023-.852-1.063-.125-1.168 2.402.183 4.793.406 7.199.496.746-.012.746 1.176 0 1.156M235.508 190.797c-.906-.524-.121-1.371.71-1.106.313.032.536.348.493.653-.078.566-.781.554-1.203.453"/><g clip-path="url(#d)"><path fill="#f8f0de" d="M165.648 258.105c-.242-.074-.355-.222-.39-.398.101-.008.21-.023.312-.043.032-.008.067-.012.098-.016.184-.003.367-.023.547-.035a.905.905 0 0 0 .176-.023h.007c-.117.289-.265.539-.578.539a.722.722 0 0 1-.172-.024"/></g><path fill="#f8f0de" d="M168.297 257.676a.572.572 0 0 1-.219-.235l.094-.011a8.22 8.22 0 0 0 1.02-.149c-.149.258-.337.48-.598.48a.631.631 0 0 1-.297-.085M184.902 151.328a.584.584 0 0 1-.05-.762c1.082-1.363 2.171-2.718 3.238-4.093 1.898-2.157 3.117-4.77 4.64-7.18.372-.645 1.383-.063.997.582-1.582 2.543-2.899 5.262-4.899 7.523-.883 1.141-1.781 2.27-2.683 3.395-.282.402-.739 1.012-1.243.535M208.516 152.617c-.727-4.73-.977-9.836-3.61-13.976-1.816-2.559-3.945-4.961-5.394-7.754-.309-.797-.625-1.692-.567-2.54.371-.706 1.196-.245 1.176.45.18 1.695 1.246 3.066 2.211 4.402 1.09 1.485 2.145 2.996 3.281 4.446 1.828 2.496 2.512 5.597 3.149 8.578.402 2.062.543 4.164.894 6.238.106.726-1.035.906-1.14.156M173.727 196.273c-1.043-.14-.04-2.675-.13-3.468.098-1.453-.07-2.907-.35-4.332-.224-1.235-.65-2.426-1.017-3.618 0-.312.262-.578.575-.578.789.102.742 1.215 1.023 1.797.715 2.442 1.172 5.028.836 7.567-.254.722.11 2.656-.937 2.632M229.375 120.988c-5.098-3.273-5.883-6.722-7.57-12.09-.008-.675 1.02-.78 1.14-.113 1.118 2.258 1.149 4.918 2.68 6.992 1.125 1.766 2.754 3.11 4.453 4.297.594.446-.113 1.375-.703.914M187.871 229.094c.031-5.852-.715-11.696-.418-17.547.098-.73 1.242-.586 1.14.152-.171 3.672.06 7.352.25 11.024.137 2.12.145 4.246.18 6.37.008.743-1.156.75-1.152 0"/><g clip-path="url(#e)"><path fill="#f8f0de" d="M240.684 213.027c-4.547-.195-9.094-.27-13.641-.297.016-.015.027-.03.043-.05a41.166 41.166 0 0 0 .98-1.078l.454.011c2.52.028 5.039.086 7.562.149 1.531.031 3.066.062 4.598.11.363-.005.554.284.558.577.004.29-.175.578-.547.578h-.007"/></g><path fill="#f8f0de" d="M189.3 212.148c-.472-.023-1.187.055-1.202-.601.058-.828 1.054-.535 1.613-.52 1.242.086 2.484.16 3.726.223.012.016.02.027.032.04.168.198.39.327.613.456.125.078.25.156.379.227.266.14.527.28.805.402.062.027.129.059.195.086a231.37 231.37 0 0 1-6.16-.313"/></svg>