<svg xmlns="http://www.w3.org/2000/svg" width="400" viewBox="0 0 300 138.75" height="185" version="1.0"><defs><clipPath id="a"><path d="M79.707 1.66h150.211V93.22H79.707zm0 0"/></clipPath><clipPath id="b"><path d="M133.129 86H139v19h-5.871zm0 0"/></clipPath><clipPath id="c"><path d="M133.129 96H135v3h-1.871zm0 0"/></clipPath><clipPath id="d"><path d="M137 39h38v67.066h-38zm0 0"/></clipPath><clipPath id="e"><path d="M170 86h6.047v2H170zm0 0"/></clipPath></defs><g clip-path="url(#a)"><path fill="#000000" d="M154.887 26.012c17.55 0 31.793 14.148 31.793 31.574 0 17.43-14.243 31.574-31.793 31.574-17.547 0-31.79-14.144-31.79-31.574 0-17.426 14.243-31.574 31.79-31.574zm0-4.059c19.804 0 35.883 15.969 35.883 35.633 0 19.668-16.047 35.633-35.883 35.633-19.801 0-35.88-15.938-35.88-35.633 0-19.664 16.079-35.633 35.88-35.633zm74.976 16.922c-1.383-9.578-9.738-17.012-19.742-17.012h-29.238a32.63 32.63 0 0 1 2.37 3.942h26.895c7.665 0 14.125 5.43 15.657 12.62 1.382.09 2.734.243 4.058.45zM99.656 25.805h26.895a29.072 29.072 0 0 1 2.375-3.942h-29.27c-10.515 0-19.199 8.18-19.89 18.446h3.964c.723-8.09 7.602-14.504 15.926-14.504zm1.262-10.985h10.848v3.106c.933 0 1.836.09 2.734.18v-5.97H98.215v5.817h2.734V14.82zm83.18 3.106-1.536-3.73c-.78-1.88-2.703-7.344-4.535-8.356-.3-.149-.601-.211-.933-.211h-44.41c-.332 0-.633.062-.934.21-1.832 1.013-3.758 6.477-4.54 8.356l-1.53 3.758h-4.297l2.133-5.25c2.316-5.61 4.117-11.043 9.136-11.043h44.414c5.016 0 6.82 5.402 9.133 11.043l2.164 5.25h-4.265zm10.488 11.789v7.46h13.492v-7.46zm2.371 2.355h8.777v2.746h-8.777zm0 0" fill-rule="evenodd"/></g><path d="M17.045 80.827h8.95v-.425c-2.7 0-2.7-3.055-2.7-4.797V64.378h12.148c7.07 0 10.41-4.793 10.41-9.73 0-4.727-3.55-9.344-10.335-9.344H17.045v.426c2.7 0 2.7 3.054 2.7 4.797v25.078c0 1.742 0 4.797-2.7 4.797zm6.25-34.812h9.558c6.32 0 9.485 4.262 9.485 8.738 0 4.653-3.164 8.88-9.38 8.88h-9.663zM47.097 45.304v.426c1.383 0 3.266-.746 3.871-.746.641 0 .606.605.606 1.562V78.34c0 1.742.14 3.2 1.527 3.2 2.309 0 4.723-3.2 6.64-5.118l-.284-.426c-1.383 1.563-2.664 2.309-3.48 2.309-.532 0-.852-.32-.852-.957V44.878c0-1.457-.782-1.953-1.387-1.953-.426 0-1.137.781-3.266 1.598-1.21.46-2.312.781-3.375.781zM60.453 60.366c1.313 0 1.633-.39 2.238-.39.461 0 .461.601.461 1.562v13.215c0 3.375.461 6.785 4.653 6.785 3.84 0 7.78-2.593 10.8-5.613v2.488c0 1.739.141 3.125 1.528 3.125 2.308 0 4.726-3.125 6.644-5.043l-.285-.43c-1.387 1.567-2.664 2.313-3.48 2.313-.536 0-.856-.32-.856-.96V58.98c0-1.457-.281-1.953-.887-1.953-.57 0-1.136.816-2.132 1.527-.993.71-2.38 1.387-3.23 1.387v.425c1.312 0 1.632-.39 2.237-.39.461 0 .461.601.461 1.562v13.356c-1.668 1.953-5.152 5.328-9.199 5.328-2.703 0-2.703-3.055-2.703-4.793v-16.45c0-1.456-.281-1.952-.887-1.952-.566 0-1.136.816-2.133 1.527-.992.71-2.378 1.387-3.23 1.387zM95.193 81.538c6.36 0 13.215-2.984 13.215-9.343 0-5.329-4.903-4.973-8.704-4.973-6.144 0-8.878-.106-8.878-3.375 0-3.305 3.62-5.934 8.523-5.934 3.59 0 6.75 2.239 6.75 5.082h.496v-4.511c-1.953-.746-3.516-1.282-7.246-1.282-5.719 0-10.371 3.27-10.371 8.243 0 5.293 4.262 5.402 9.77 5.402 3.34 0 8.203-.5 8.203 2.2 0 4.76-4.438 7.105-8.88 7.14-3.765.035-6.394-2.059-6.394-4.156 0-.747.106-1.457.711-1.774-.144-.18-.496-.285-.816-.285-1.387 0-2.664 1.066-2.664 2.95 0 2.804 2.128 4.616 6.285 4.616zM201.896 59.976c.461 0 .461.601.461 1.562v14.067c0 1.742 0 4.797-2.699 4.797v.425h8.953v-.425c-2.703 0-2.703-3.055-2.703-4.797V64.308c1.281-1.598 5.188-6.04 9.805-6.04 2.703 0 2.703 3.056 2.703 4.798v15.347c0 1.739.14 3.125 1.527 3.125 2.309 0 4.723-3.125 6.64-5.043l-.284-.43c-1.383 1.567-2.664 2.313-3.48 2.313-.532 0-.852-.32-.852-.96V63.74c0-3.375-.461-6.785-4.653-6.785-4.12 0-8.277 2.95-11.406 6.215V58.98c0-1.457-.281-1.953-.887-1.953-.566 0-1.101.78-2.132 1.527-.958.71-2.38 1.387-3.23 1.387v.425c1.312 0 1.632-.39 2.237-.39zM228.717 72.94c0 6.145 3.906 8.598 8.738 8.598 5.504 0 10.195-4.261 11.617-8.527l-.5-.14c-.781 2.628-5.504 7.245-9.45 7.245-5.187 0-6.925-4.332-6.925-9.093 0-6.68 4.367-13.356 10.445-13.356 2.414 0 3.446 1.563 3.446 3.692 0 4.37-4.762 11.761-10.055 11.761-.996 0-1.633-.109-2.133-.39l-.21.46c.816.426 1.421.532 2.804.532 4.265 0 12.613-4.086 12.613-11.473 0-3.554-3.2-5.047-6.465-5.047-8.136 0-13.925 8.352-13.925 15.739zM91.258 108.68c0 10.538 7.598 19.081 18.5 19.081 10.902 0 13.336-5.09 13.336-5.09v-4.941h-.437c-1.891 5.086-5.305 9.12-10.43 9.12-10.43 0-17.953-9.991-17.953-20.788 0-6.465 3.89-15.406 14.285-15.406 4.723 0 9.23 2.289 11.48 7.484h.438l-1.961-7.629s-3.055-.91-8.758-.91c-10.902 0-18.5 8.539-18.5 19.078zM126.72 118.785c0 6.285 4 8.793 8.942 8.793 8.32 0 13.3-8.106 13.3-16.098 0-6.29-4-8.797-8.94-8.797-8.321 0-13.302 8.105-13.302 16.102zm3.309-1.747c0-6.359 3.09-13.554 8.684-13.554 4.726 0 6.906 4.906 6.906 9.668 0 6.36-3.09 13.554-8.688 13.554-4.758 0-6.902-4.906-6.902-9.668zM154.153 105.519c.473 0 .473.617.473 1.598v14.39c0 1.781 0 4.906-2.762 4.906v.438h9.16v-.438c-2.766 0-2.766-3.125-2.766-4.906v-11.554c1.309-1.637 5.309-6.18 10.032-6.18 2.761 0 2.761 3.125 2.761 4.906v15.7c0 1.78.145 3.199 1.563 3.199 2.363 0 4.836-3.2 6.797-5.16l-.29-.438c-1.417 1.601-2.726 2.363-3.562 2.363-.547 0-.87-.328-.87-.98V109.37c0-3.453-.474-6.94-4.763-6.94-4.214 0-8.468 3.015-11.668 6.358V104.5c0-1.488-.289-1.996-.906-1.996-.582 0-1.129.797-2.18 1.563-.984.726-2.437 1.418-3.308 1.418v.433c1.344 0 1.672-.398 2.289-.398zM183.003 103.882v20.496c0 1.782.145 3.2 1.563 3.2 2.363 0 4.832-3.2 6.796-5.16l-.293-.438c-1.414 1.601-2.722 2.363-3.558 2.363-.547 0-.875-.328-.875-.98v-19.48c1.926.038 3.89.327 5.199.91v-1.383h-5.2V92.074h-.726c0 3.05.184 11.336-6.504 11.336v.437zM194.011 118.785c0 6.285 4 8.793 8.942 8.793 5.633 0 10.43-4.36 11.883-8.723l-.508-.145c-.801 2.692-5.633 7.414-9.668 7.414-5.305 0-7.086-4.433-7.086-9.304 0-6.832 4.469-13.664 10.683-13.664 2.473 0 3.528 1.601 3.528 3.78 0 4.47-4.871 12.028-10.285 12.028-1.02 0-1.672-.11-2.184-.398l-.215.472c.836.434 1.453.543 2.871.543 4.36 0 12.899-4.18 12.899-11.738 0-3.633-3.27-5.16-6.614-5.16-8.32 0-14.246 8.543-14.246 16.102zM220.063 105.519c.473 0 .473.617.473 1.598v14.39c0 1.781 0 4.906-2.762 4.906v.438h9.16v-.438c-2.765 0-2.765-3.125-2.765-4.906v-11.554c1.308-1.637 5.308-6.18 10.031-6.18 2.762 0 2.762 3.125 2.762 4.906v15.7c0 1.78.144 3.199 1.562 3.199 2.363 0 4.836-3.2 6.797-5.16l-.289-.438c-1.418 1.601-2.727 2.363-3.563 2.363-.546 0-.87-.328-.87-.98V109.37c0-3.453-.473-6.94-4.762-6.94-4.215 0-8.47 3.015-11.668 6.358V104.5c0-1.488-.29-1.996-.907-1.996-.582 0-1.128.797-2.18 1.563-.984.726-2.437 1.418-3.308 1.418v.433c1.344 0 1.672-.398 2.29-.398zM248.913 103.882v20.496c0 1.782.145 3.2 1.563 3.2 2.363 0 4.832-3.2 6.797-5.16l-.293-.438c-1.414 1.601-2.723 2.363-3.559 2.363-.547 0-.875-.328-.875-.98v-19.48c1.926.038 3.89.327 5.2.91v-1.383h-5.2V92.074h-.726c0 3.05.183 11.336-6.504 11.336v.437zm0 0" fill="#000000"/><g clip-path="url(#b)"><path fill="#000000" d="M135.668 104.535c-.742-.012-1.445-.387-1.918-.957-.336-.777-.172-1.762-.32-2.601-.082-1.926-.297-3.852-.176-5.778-.02-4.511 1.379-2.363 1.605-5.191.055-1.094.016-2.188-.011-3.281v-.047c.027-.278.468-.258.457.03 0 .103.004.204.007.302.028.867.043 1.734.02 2.597-.062 3.536-1.664 1.278-1.61 5.422-.05.63-.058 1.258-.042 1.883.011.387.027.773.047 1.16.046.836.105 1.672.128 2.508.083.871.13 1.742.215 2.61.356.605 1.125.91 1.801.878 1.047-.007 1.602-.543 1.938-.73.14-.074.242-.09.328.02.086.128.047.23-.04.32-.003.007-.007.011-.011.015a.83.83 0 0 1-.125.102c-.066.05-.137.094-.184.14-.601.434-1.37.598-2.097.598h-.012"/></g><path fill="#000000" d="M137.96 103.797c-.183-.067-.175-.258-.151-.457.02-.125.043-.254.035-.356.027-.472.054-.949.074-1.425l.023-.598c.004-.098.008-.195.016-.29.082-1.624.262-3.245.25-4.87a16.943 16.943 0 0 0-.078-1.57c-.027-.965-.582-1.645-1.152-2.344-.36-.653-.243-1.446-.27-2.164-.004-.938-.035-1.875-.027-2.813 0-.043 0-.086.004-.129-.059-.238.18-.484.386-.289a.22.22 0 0 1 .043.078c.078.196-.004.442.024.649 0 .972.035 1.945.031 2.918-.156 2.414 1.387 1.668 1.457 4.52.148 2.116-.14 4.226-.223 6.335-.039.844-.074 1.692-.14 2.531l-.114.106c-.054.058-.109.117-.168.176-.003-.004-.011-.004-.02-.008"/><path fill="#000000" d="M138.398 95.465c.04.137-.043.246-.191.336-.484.289-1.707.347-2.004.332-.52-.04-1.066-.051-1.547-.266a1.921 1.921 0 0 1-.289-.16c-.355-.105-.09-.629.211-.414a.03.03 0 0 0 .016.008c.437.304.98.308 1.488.36a4.498 4.498 0 0 0 2.016-.321.18.18 0 0 1 .101-.016.224.224 0 0 1 .2.14"/><path fill="#000000" d="M137.992 100.73c.02.086 0 .165-.05.23-.25.321-1.208.395-1.489.349-2.234-.313-1.844-1.317-2.031-3.04a6.416 6.416 0 0 0-.031-.253l-.024-.211a19.88 19.88 0 0 1-.078-.676c-.012-.137-.027-.274-.039-.414a24.39 24.39 0 0 1-.063-1.074c-.078-.293-.003-.641.352-.426.024.027.04.058.055.086.074.16.043.36.062.527v.04c.024.667.094 1.335.18 2 .055.48.098.964.14 1.448.067.336-.042.758.208 1.028.703.527 1.718.691 2.507.261a.218.218 0 0 1 .262.067.219.219 0 0 1 .04.058M136.965 102.586c.191.031.5.023.469.3a.227.227 0 0 1-.258.2 2.134 2.134 0 0 1-1.485-.719c-.34.36-.62.934-1.21.848a.233.233 0 0 1-.196-.262c.028-.234.266-.18.426-.23.332-.121.418-.543.7-.73.581-.38.886.6 1.554.593M135.844 86.629c.234-.04 1.004-.11.886-.453-.359-.297-1.273-.156-1.554.21.02.02.035.044.047.071.004.008.007.02.007.027.208.04.391.192.614.145zm-.852-.727c.606-.5 2.524-.601 2.164.606a1.061 1.061 0 0 1-.477.402c-.32.149-.706.184-1.034.184a1.09 1.09 0 0 1-.333-.082 2.09 2.09 0 0 1-.187-.09.236.236 0 0 1-.105-.14.372.372 0 0 1-.172-.055c-.262-.165-.118-.665.144-.825"/><g clip-path="url(#c)"><path fill="#000000" d="M134.367 97.805c.418-.278.547.418.055.465a.853.853 0 0 1-.309-.04.775.775 0 0 1-.386-.156c-.356-.281-.465-.86-.047-1.16.007-.008.02-.012.027-.02.223-.171.414-.21.543-.18.207.052.258.27.04.415-.013.008-.02.016-.036.023-.598.125-.438.621.098.66.003-.003.007-.003.015-.007"/></g><g clip-path="url(#d)"><path fill="#000000" d="M144.816 104.777c.989-.605 1.317-.945 1.399-1.433a2.204 2.204 0 0 1-.371.187c-.844.274-1.766.344-2.645.367-.633-.03-.824-.734-.328-1.117.5-.293 1.106-.527 1.285-1.156.446-1.785.219-3.695.051-5.512-.125-.902-.34-1.8-.281-2.718.035-.227-.008-.497.02-.735-.716-.105-1.403-.351-1.65-1.039.017-.363.056-.723.099-1.086-.434-.101-.88-.168-1.317-.273-.016.008-.101-.067-.129-.106-.004-.004-.008-.008-.008-.015a.117.117 0 0 1-.015-.04c-.012-.023-.02-.046-.031-.074-.016-.058-.036-.117-.055-.18l-.012-.042a63.899 63.899 0 0 1 1.031-12.575c.391-2.113.461-4.918 2.547-6.074.758-.328 1.582-.324 2.399-.324.215.004.43.004.64-.004-1.254-2.574-2.093-5.348-2.863-8.11-.8-2.683-.633-4.675-2.91-6.624-.254.25-.559.433-.899.453-.011.137-.046.281-.043.383a20.101 20.101 0 0 0-.187 1.734c-.055.848-.07 1.695-.086 2.543a.211.211 0 0 1 .016.059c.386.476.945.742 1.386 1.148.48 1.035-2.129.95-2.691.879-.469-.066-.95-.16-1.387-.352-.304-.152-.586-.601-.336-.91.168-.156.414-.164.61-.273.355-.188.742-.356 1.004-.672.324-.395.375-1.211.347-1.45.13-1.163.196-2.331.227-3.495 0-.008 0-.012.004-.016-1.133-.957-1.285-3.285-1.297-4.602-.086-1.882.277-3.82.683-5.53.059-.243.489-.321.66-.325.915-.008 1.477-.047 2.2.098.91.183 1.672.722 1.687.726.555.184-.05 2.238-.039 2.781.668.395 1.38 3.426 1.531 4.028.036.129-.011.453.043.547.223.398.403.82.575 1.242.363.777.578 1.605.847 2.418.457 1.203.782 2.48 1.2 3.687.242.754.511 1.496.8 2.23.246.634.465 1.274.672 1.923a.215.215 0 0 1 .086.105c.102.258.227.508.34.758.031.144.172.36.27.57.218-1.863.593-3.71.8-5.254.41-1.968.47-4.215 1.664-5.882a8.374 8.374 0 0 1 2.84-1.301c.36-.078.719-.153 1.078-.219.098-.02.192.04.235.129.015-.031.027-.059.043-.086.41-1.004 1.343-1.617 1.91-2.512.472-.843 1.246-1.777.93-2.808-.34-.77-1.391-.825-1.883-1.493-.739-.824-1.133-1.875-1.207-2.96-.118.27-.239.542-.387.796-.379.606-.977 1.012-1.531 1.43.277.816 1.414.535.691 1.785.149.114.25.239.266.367.097.004.195.012.273 0 .059 0 .125-.015.196-.027.175-.035.359-.07.425.14.043.446-.62.325-.902.36h-.086c-.047 0-.094 0-.14-.004-.063.246.081.485.117.73.003.321.101.626.414.755.336.168.691.328 1.07.355.172.023.355.008.535-.012.23-.02.457-.039.668.024.344.492-.418.472-.918.453-.14-.004-.262-.008-.328 0-.656-.098-1.453-.328-1.797-.953-.082-.582-.441-1.262-.047-1.79-.629-.48.446-1-.21-1.245-.376-.211-.798-.641-.653-1.114.36-.484.976-.718 1.351-1.21.5-.547.583-1.329 1.004-1.922l.024-.036c.039-.304.105-.609.195-.906.121-.46.508-2.05 1.074-2.113.153-.113.414-.149.555-.25 1.559-.906 3.387-1.16 5.137-.793 1.77.394 3.601.957 5.047 2.105 1.054 1.067 1.609 2.535 2.195 3.907.715 2.07.355 4.918 2.547 6.086 1.293.804 1.515 3.117 1.398 4.527-.129 1.277-1.027 2.25-1.414 3.43-.23.539-.082 1.085.34 1.468.387.469.75.953 1.031 1.492.703 1.196.403 2.63-.308 3.739-.207.402-.39.828-.715 1.152-.211.246-.527.39-.68.684-.097.175-.12.507-.25.68-.02.12-.133.257-.344.3-.011.278-.05.57-.011.723.047.558.125 1.113.23 1.66.363 1.492.895 2.96 1.121 4.488a.66.66 0 0 1 .035.133c.067.004.133.012.2.02a.26.26 0 0 1 .082-.036.209.209 0 0 1 .18.075c.136.02.269.043.402.074.77 1.07.12 2.59-.14 3.762-.388 1.449-.72 2.918-1.352 4.285-.168.328-.333.656-.493.98-.004.004-.004.008-.007.012a3.97 3.97 0 0 0-.125.219c-.04.074-.083.148-.114.226l-.023.051a25.251 25.251 0 0 0-.262.488c-.059.11-.113.22-.172.325a13.06 13.06 0 0 1-.375.601 8.139 8.139 0 0 0-.27.371c-.023.031-.042.063-.062.09h-.008c-.707.887-1.605 1.77-2.933 2-.317.04-2.344.219-2.453.227-.23.023-.457.035-.688.035-1.73.074-3.394-.297-4.976-.93l-.016.016c-.102-.055-.207-.106-.309-.16a7.479 7.479 0 0 1-.453-.258c-.078-.047-.156-.094-.238-.133a4.68 4.68 0 0 0-.2-.098c-.073-.043-.144-.09-.218-.129-.082-.039-.164-.082-.25-.117-.152-.066-.309-.133-.46-.2-.102-.054-.204-.108-.306-.167-.058-.031-.113-.063-.172-.094a.887.887 0 0 0-.183-.09 29.074 29.074 0 0 1-2.246-1.527c-1.938-1.379-3.84-2.879-5.418-4.68.023.114.05.227.078.336.465 1.926.96 3.856 1.281 5.809.059.316.88 5.437.442 5.543a5.43 5.43 0 0 1-1.09.117c-.078.45-.18.898-.149 1.356-.03 1.203 1.028 1.824 1.653 2.68.613.968.199 2.226-.668 2.878-2.059 1.094-.602 3.3-1.575 5a1.844 1.844 0 0 1-1.617 1.04c-.824.085-1.644.198-2.468.265-.036 0-.07.004-.106.004-.832 0-1.277-.739-.43-1.278zm1.72-10.625c.32 1.985.214 4 .12 5.996-.015.68-.043 1.36-.023 2.04.043.539.199 1.117-.059 1.628-.324.926-3.12 1.899-.887 1.727.024.004.047.008.075.008.05 0 .105-.008.156-.02.016 0 .027-.004.043-.004l.215-.015c.023 0 .047-.004.07-.008a.302.302 0 0 0 .063-.027c.043-.008.086-.012.132-.016h.188c.047 0 .094-.004.14-.004.063-.004.126-.012.188-.02.133-.011.266-.03.395-.058a4.607 4.607 0 0 0 1.09-.215c1.324-.875.777-2.715.984-4.055.09-1.453 2.094-1.675 2.094-3.171-.106-1.626-2.09-1.766-1.958-3.993.032-.191.043-.746.133-1.129-.332-.011-.617-.027-.726-.004-.594-.007-2.067.012-2.125.012v-.004c-.207 0-.414 0-.621-.004.172.442.285 1.164.312 1.336zm-1.942 1.457c.23 1.461.277 2.942.25 4.418-.031.961-.117 2.082-.938 2.696-.246.254-.777.257-.863.632.394.204.867 0 1.289-.011.637-.059 1.324-.121 1.848-.535a.314.314 0 0 1 .054-.036c-.015-.32-.054-.71-.066-1.226 0-1.992.242-3.977.062-5.961-.054-.945-.195-1.887-.488-2.777a13.948 13.948 0 0 1-.578-.032c-.23-.02-.488-.035-.758-.062-.074.972 0 1.941.188 2.894zm-.403-20.921c-.234.687-.246 2.14-.324 3.152-.242 3.242-.543 6.48-.699 9.73-.05.914-.156 1.825-.266 2.735.032.46-.406 1.183.047 1.488.871.504 2.117.578 3.363.57-.074-.617-.078-1.195-.148-1.8-.055-.758-.176-1.508-.2-2.266-.05-1.219-.28-2.418-.359-3.633a39.549 39.549 0 0 1-.214-3.191c-.063-.88-.18-1.762-.043-2.641.074-.445.164-1.016.25-1.457.097-.5.234-.871.492-1.313.25-.445.613-.87 1.105-1.03a3.205 3.205 0 0 1 2.133.152c.7.359 1.2.996 1.703 1.59.48.605.996 1.175 1.485 1.773.394.473.761.973 1.226 1.379a18.514 18.514 0 0 0 3.485 2.406c.453.227.921.41 1.375.629 1.218.621 2.492 1.242 3.824 1.543.379.078.765.082 1.148.05.406-.034.82-.066 1.207-.206.352-.137.664-.352 1-.52a5.687 5.687 0 0 0 1.621-1.234c.664-.727.735-1.2.922-2.137.149-.648.192-1.332.395-1.965-.535-.191-.301-.668-.27-1.195.035-.387.067-.77.098-1.156a.94.94 0 0 0 .008-.282c-.942-.097-1.887-.21-2.828-.328a4.452 4.452 0 0 1-.774-.133c-.016.204-.14.457-.16.625-.211.465-.129 1.66-.89 1.438-.383-.113-.36-.516-.278-.84.07-.484.184-.96.277-1.441a2.429 2.429 0 0 0-.558.004.273.273 0 0 1-.082.043c-.157.312-.348.62-.461.957a38.05 38.05 0 0 0-.703 1.703.199.199 0 0 1-.094.11c.922.444 1.824.925 2.687 1.491.633.387 1.32.676 1.934 1.094.254.148.027.563-.23.402-1.504-.84-2.985-1.773-4.524-2.55-2.953-1.336-5.945-2.645-8.707-4.371-.094-.063-.219-.102-.324-.16-.434.222-.852.327-1.25.277-.363-.172-.758-.45-1.012-.801-.27.027-.68-.219-.906-.23-.75-.212-1.578-.38-2.371-.38-1.317 0-2.602.43-3.11 1.918zm2.715 1.05c-.281.274-.508.453-.64.82-.125.383-.141.524-.243.91-.066.278-.128.989-.191 1.27-.2.973-.016 1.961.027 2.938.032 1.492.2 2.972.348 4.457.059.512.152 1.023.18 1.539.047.766.074 1.527.183 2.289.063.734.114 1.469.13 2.207 0 .062.003.129.007.191.047 0 .09-.004.133-.004-.024-3.175-.559-6.367-.762-9.55-.105-1.32.078-2.63.274-3.93.14-.79.238-1.652.718-2.313.63-.73 1.727-.554 2.364.067 1.023.766 1.738 1.855 2.617 2.77 1.082 1.011 2.195 2.019 3.453 2.8 2.215 1.29 4.535 2.485 7.043 3.047 1.601.387 3.187.262 4.598-.664 1.585-.727 1.492-2.605 1.742-4.098.332-1.37.941-2.691 1.129-4.093.007-.118-.004-.274.047-.383-.114-.008-.231-.02-.344-.031.054.418-.07 1.105-.043 1.332-.031.406-.063 1.136-.5 1.242a2.86 2.86 0 0 0-.113.445c-.145.734-.262 1.477-.43 2.203a2.854 2.854 0 0 1-.207.696c-.207.468-.535.867-.887 1.23-.52.523-1.144.918-1.793 1.25-.426.25-.867.492-1.363.555-.754.113-1.531.18-2.278-.02a14.265 14.265 0 0 1-2.097-.75c-.672-.289-1.309-.652-1.977-.95-.965-.39-1.867-.913-2.726-1.503a15.519 15.519 0 0 1-2.102-1.652c-.453-.453-.836-.977-1.254-1.465-.32-.39-.66-.77-.98-1.16-.406-.5-.809-1.008-1.285-1.442a2.147 2.147 0 0 0-1.266-.574 4.204 4.204 0 0 0-.45-.027c-.386 0-.777.078-1.062.351zm2.114 16.61c.636 0 1.273 0 1.91-.012h.007c-.105-3.953-1.109-7.79-2.003-11.613-.04-.16-.262-1.078-.25-1.094-.137-.567-.301-1.121-.555-1.64-.238-.305.25-.618.387-.243-.004-.008-.004-.016-.008-.023 0-.004-.004-.008-.004-.008h.004c.36.722.562 1.504.738 2.293 1.426 1.922 3.348 3.402 5.223 4.844 2.008 1.468 4.082 2.878 6.445 3.68 1.418.503 2.922.652 4.41.585a64.773 64.773 0 0 1 1.54-.164c1.96-.113 2.765-.492 3.796-1.914-.656-1.23.035-4.812.242-6.023.52-.559 1.766-.293 2.473-.29.043.004.078.02.105.04.305-1.43 1.043-2.891.688-4.375a.241.241 0 0 0-.07-.07c.004.41-.102.929-.098 1.128-.125.512-.05 1.645-.809 1.551-.304-.023-.586-.285-.433-.605a8.474 8.474 0 0 0 .281-1.56c.047-.132.016-.362 0-.593-.86-.055-1.71-.12-2.566-.195a.278.278 0 0 1 .011.082c-.011.262-.02.527-.074.789-.445 1.762-1.164 3.441-1.3 5.273-.133 1.97-1.465 2.868-3.16 3.461-2.84.926-6.368-.785-8.907-2.066-2.582-1.277-4.863-3.148-6.672-5.418-1.809-2.098-3.207-2.477-3.57.793-.149 1.121-.203 2.246-.281 3.383-.051.687.949 7.777.753 10 .36-.008.711-.016 1.043-.016.246 0 .485.004.704.02zm-6.516-16.098c-.219 1-.3 2.023-.402 3.043-.254 1.473-.457 2.957-.543 4.457-.079 1.254-.23 2.504-.25 3.762-.024.765-.02 1.531-.024 2.3.117.02.254.051.414.11.176.078.516.062.762.129.078-.559.156-1.117.191-1.676.196-3.535.496-7.063.762-10.59.063-.262.133-1.93.297-2.746.148-.742.715-1.617.945-1.836.996-.945 2.305-1.023 3.606-.824a29.32 29.32 0 0 1-.59-1.09c-.059.004-.121.004-.18.004-.054 0-.11 0-.164.004a10.08 10.08 0 0 0-.742-.027h-.004c-3.285 0-3.402 1.796-4.078 4.98zm28.789 5.012c-.145 1.636-.711 3.672-.32 5.285 1.02-1.676 1.933-3.438 2.41-5.36-.024.004-.047.004-.07.004-.352-.023-.715-.058-1.079-.058-.324 0-.64.027-.941.129zm2.242-4.98c.008.773-.25 1.937-.336 2.238.02.007.043.011.063.015.011.004.023.008.035.008.215-.543.25-1.152.308-1.734.04-.137.008-.34-.003-.532-.024 0-.047.004-.067.004zm-4.71 1.738.066.03c.023-.042.043-.085.066-.128.05-.082.125-.117.2-.113.093-.399.062-.848.093-1.25.04-.164-.023-.426-.008-.63a3.988 3.988 0 0 0-.215-.019c.004.723-.199 1.852-.203 2.11zm-15.509-4.41c.723.378 1.395.89 2.11 1.253 1.324.688 2.68 1.305 4.012 1.969.753.332 1.503.66 2.246 1.008-.016-.113.027-.274.09-.445-1.34-.735-2.672-1.48-4.06-2.13-1.284-.644-2.452-1.5-3.745-2.128-.02 0-.035 0-.047-.004-.203.18-.406.34-.606.476zm10.711 3.398c.004 0 .008.004.012.004.004.004.008.004.012.008.16-.532.289-1.075.426-1.61a.604.604 0 0 1 .023-.12l-.148-.036c-.11.586-.247 1.164-.325 1.754zm-9.757-4.2c1.187.473 2.265 1.352 3.406 1.919 1.457.687 2.875 1.46 4.285 2.238.113-.238.226-.461.254-.582.234-.508.406-1.059.734-1.516.004-.004.008-.012.012-.015-.149-1.274-.543-2.497-1.031-3.676-.328-.778-.563-1.621-1.055-2.317-.836-.527-1.77-.64-2.254-1.722-.023-.043-.043-.078-.059-.117-1.289 2.011-2.816 4.343-4.292 5.789zm1.378-18.085c-1.039.187-2 .636-2.89 1.199-.414.324-.508.914-.719 1.379-.75 2.57-1 5.246-1.457 7.879-.355 2.129-.516 4.316-.191 6.46.05.38.18.704.312 1.028.129.11.106.32.246.434.324.328.723.828 1.23.59 1.774-.79 2.926-2.52 4.087-4.028.515-.84 1.086-1.637 1.656-2.441.75-1.184 1.433-2.414 2.297-3.52.238-.312.492-.613.73-.926a.234.234 0 0 1 .168-.09c-.472-.628-.738-1.5-.781-2.226.039-.84-.402-1.64-1.113-2.063a5.089 5.089 0 0 0-.82-.234c-.391.516-.712 1.086-1.048 1.645-.945 1.707-2.535 2.992-3.332 4.785a.202.202 0 0 1-.062.117c.11 2.633.172 6.027-.414 5.828-.168-.05-.188-.234-.14-.383.1-.55.132-1.074.14-1.625a93.475 93.475 0 0 0-.176-6.699c.016-1.156-.062-2.332.07-3.484.141-.77 1.563-.871 2.18-1.168.246-.094.473-.23.672-.399a.325.325 0 0 1 .05-.07c-.218-.684-.187-1.461.048-2.145-.2.11-.551.075-.743.157zm-13.488.675a2.953 2.953 0 0 1-.207.352c1.582 1.254 2.336 3.172 2.629 5.148.227 1.235.707 2.403.992 3.625.43 1.665 1.078 3.254 1.711 4.844.305.672.63 1.336.938 2.008.129.285.343.781.488 1.082.547.106 1.082.246 1.59.383-.63-1.574-.656-3.512-.469-5.469a.227.227 0 0 1-.234-.094c-.004-.011-.008-.023-.016-.039.004.008.004.012.008.016-.02-.05-.04-.106-.059-.156-.011-.04-.027-.078-.039-.118a.344.344 0 0 1-.02-.058c.005.008.005.02.008.027-.015-.05-.039-.101-.058-.152l.012.039a.972.972 0 0 0-.043-.113c-.012-.032-.024-.067-.04-.098.004.004.004.008.008.012l-.011-.028v-.004c-.004 0-.004-.003-.004-.007v.007c-.004-.011-.008-.023-.016-.035v-.004l-.012-.03.012.03c-.023-.05-.047-.097-.07-.148-.02-.043-.035-.09-.051-.137-.031-.082-.062-.164-.105-.242l.02.04c-.036-.067-.067-.138-.099-.208-.05-.133-.09-.27-.148-.398.004.007.008.011.008.02l-.082-.2c-.035-.09-.07-.18-.121-.266a5.656 5.656 0 0 1-.137-.265c-.02-.051-.043-.098-.066-.149-.063-.18-.13-.36-.2-.539-.312-.847-.66-1.707-.93-2.562-.472-1.38-.85-2.785-1.35-4.153-.216-.691-.419-1.39-.724-2.047-.21-.5-.41-1.003-.703-1.457-.242-.359-.539-.675-.785-1.03a8.573 8.573 0 0 1-.703-1.16c-.328-.638-.453-1.38-.86-1.974-.277.989.15 2.008.364 2.97.18.648.09 1.323.203 1.98.004.136.137.257.055.39a.203.203 0 0 1-.192.098c-.109-.027-.18-.129-.23-.258-.074.184-.215.383-.262.527zm29.742 12.762c.09.008.149.055.184.125.023-.086.066-.176.094-.254.191-.926 1.183-1.199 1.472-2.129a6.57 6.57 0 0 0 .325-.57c0-.016.003-.031.007-.047.286-1.562-.558-2.762-1.468-3.902l-.036-.047c.72 1.3.34 1.89-.05 2.812a6.34 6.34 0 0 0-.328.95c.023.953.398 1.894.027 2.836a.232.232 0 0 1-.281.164c-.317-.118-.078-.485-.055-.72.172-.718-.137-1.413-.152-2.128-.02-.45.16-.848.351-1.246.02-.758-.246-1.465-.61-2.117.2.883.263 1.785-.167 2.613-.25.512-.535 1.02-.555 1.605-.023.524.047 1.067.274 1.543.05.114.007.211-.063.266.336.023.66.078.938.27a.124.124 0 0 1 .078-.024h.015zm-8.05-27.738c.359.125.984 1.324 1.132 1.543 1.68 2.586 1.575 3.281 1.485 5.265 0 .047.004.094.004.141.101.863.449 1.7.867 2.45.45.652 1.078 1.144 1.574 1.753.8 1.07.871 3.078.29 4.27-.231.539-.903.55-1.247.96a.796.796 0 0 0 .023 1.016c.04.051.051.106.047.157.137.132.27.265.399.39.539.645 1.015 1.371 1.32 2.164.582 1.559 1.059 3.82-.648 4.801-.239.79.359 1.762.91 2.297.117.05.172.156.176.254.12.008.246.015.37.02a.306.306 0 0 1-.042-.071c-1.016-2.422.582-3.004.574-4.918-.074-.723-.274-1.426-.473-2.121-.922-1.05-1.726-2.39-1.113-3.809.215-.668.59-1.3.648-2.015-.054-1.297-.425-2.61-.945-3.785-.031-.059-.07-.121-.101-.188-1.98-2.101.191-5.41-1.594-8.598-.27-.507-.528-1.035-.93-1.445a.231.231 0 0 1-.11-.195c.005-.016.012-.031.016-.047-.937-.434-1.964-.711-2.941-.969.137.207.227.446.309.68zm5.18 22.973c-.384.492-.977.859-1.083 1.53-.047.29-.07.63.106.88.039.05.05.101.05.148.563.531.524 1.488 1.38 1.797-.633-.707-1.176-1.855-.762-2.684 1.203-.757 1.242-1.914.972-3.101-.164.5-.402.98-.664 1.43zm-1.587.523c-.125.422-.215.867-.187 1.309.066.074.137.144.199.214-.098-.836.492-1.691 1.125-2.21a6.096 6.096 0 0 0 .8-1.86c.013-.082.052-.137.106-.164a5.683 5.683 0 0 0-.395-1.023c.177 2.285-.761 1.878-1.648 3.734zm-8.28-23.902c-.075.43-.376 1.203-.38 1.414-.324 1.449.227 3 1.113 4.136.809 1.188 2.961 1.454 2.774 3.22-.738 2.847-2.027 1.663-1.317 5.667.446 1.375 1.149 1.832 1.7 2.8a10.79 10.79 0 0 1 1.886 3.009c.68 1.078 1.29 2.246 1.278 3.562.023.352.054.7.14 1.043a.212.212 0 0 1-.058.223c.14.074.281.14.422.203-.45-.95.203-2.219-.18-3.246-.23-.707-.742-1.281-.953-1.992-.262-.91.191-1.832.101-2.746-.265-1.168-1.66-1.383-2.304-2.239-1.282-1.965.191-2.593 1.058-4.004-.027-2.039-1.695-3.558-2.652-5.226-1.363-1.969-.637-3.945-.3-6.09a.76.76 0 0 0 0-.23 6.163 6.163 0 0 0-2.329.496zm4.51 19.027c.423.914 1.384 1.703 1.095 2.824-.067.192-.2.707-.38 1.008.192.04.376.133.544.313.511.43.418 1.269.957 1.664-.2-1.059-.11-2.207-.66-3.165-.567-.957-1.024-1.988-1.614-2.925.02.09.04.183.059.281zm-7.374-1.691c-3.172 1.496-2.356-.18-2.469 4.464-.004.235.04.977.086 1.938.527-.957 1.344-1.758 1.973-2.64.793-.958 1.316-2.055 2.027-3.06-.43-.105-.844-.25-1.176-.554a2.684 2.684 0 0 1-.199-.316 1.047 1.047 0 0 1-.242.168zm16.125-5.188c.133.691.633 1.223.86 1.879.484 1.387-.15 2.82-.938 3.941-.38.825-.27 1.91.218 2.664.649.977 1.54 1.868 1.809 3.024-.027-.75-.367-1.477-1.016-2.262-.382-.508-.96-.984-.847-1.695.136-1.285 1.12-2.238 1.425-3.465.31-1.152.024-2.348-.257-3.473-.215-.687-.82-1.035-1.356-1.433.012.273.063.55.102.82zm-8.64-8.852c-.298 1.403-.208 3.008.706 4.165.84.921 1.067 2.418.508 3.543-.031.062-.059.12-.094.18-.023.128-.074.226-.16.269-.777 1.164-2.14 1.886-.887 3.453.828.738 2.223 1.183 2.309 2.492.027.797-.29 1.582-.172 2.379.297 1.043 1.191 1.895 1.152 3.05a5.838 5.838 0 0 1-.07.735c.617-1.379 1.992-1.422 1.465-4.078a.447.447 0 0 1 .05-.145 18.322 18.322 0 0 0-.402-.558c-.921-.965-2.14-1.942-2-3.442-.023-1.355 1.457-2.503.926-3.878-.457-.696-1.105-1.317-1.12-2.22a26.293 26.293 0 0 1 .01-2.05 3.13 3.13 0 0 1 .005-.383c0-.035.004-.066.015-.09.082-1.703.094-2.12-1.714-5.039-.036-.117-.165-.273-.301-.441.035.687-.117 1.39-.227 2.059zm6.245 8.72c.711 2.41.828 2.952-.152 5.269-.328.863 0 1.785.523 2.48.766.918 1.528 1.864 1.891 3.035.016.07.043.184.07.313.067-.254.086-.52.008-.805-.484-1.699-2.066-2.496-1.52-4.558.66-2.301.622-4.38-.933-6.032.043.13.082.235.113.297zm-13.125-9.243c-.246 1.066-.25 2.23.281 3.215.493 1.371 1.704 1.582 2.34 2.223a.345.345 0 0 1 .164.066c.293.422.434.937.551 1.434.531 2.87-1.039 3.503-.988 5.062.363 1.629 2.508 2.164 2.61 3.906.105.88-.184 1.73-.231 2.598-.012.43-.055.863.031 1.285.004.02.008.035.008.047.133.129.281.238.457.336.55.266 1.184-.023 1.77-.098 0-.027.007-.058.019-.086.98-1.718.059-2.125-.668-3.554-.207-.516-.246-1.098-.492-1.602a.357.357 0 0 0-.031-.05c-.063-.071-.13-.137-.196-.204-.094-.07-.12-.16-.101-.238-.766-1.074-1.664-2.074-1.653-3.504-.351-1.992.332-2.785.868-3.555a.221.221 0 0 1-.06-.12c-.089-1.075-1.108-1.618-1.862-2.208-.778-.613-1.614-1.226-2.075-2.14-.398-.989-.562-2.059-.656-3.13a6.16 6.16 0 0 1-.086.317zM137.82 62.344c.743.683 2.672.62 3.598.293-.418-.352-1.043-.633-1.313-1.13-.062-.03-.109-.097-.109-.194.031-1.477.043-2.961.297-4.422.039-.106.027-.262.043-.403a1.824 1.824 0 0 1-.258-.09c-.008.434-.023.875-.05 1.305a54.56 54.56 0 0 1-.262 2.875c-.067.25.027.547-.317.746-.004.004-.015-.008-.02-.004-.312.403-1.324.93-1.609 1.024zm21.97-12.203a9.32 9.32 0 0 1-1.388 2.37c-.492.575-1.086 1.075-1.402 1.782-.453.875-.48 2.008.047 2.855.508.461 1.262.47 1.887.672.812.145 1.41.875 1.722 1.617.137.774.18 1.645.477 2.372.039-1.41.73-2.957-.145-4.106-.476-.562-1.078-.996-1.547-1.566-.484-.602-.832-1.38-.562-2.157.125-.566.539-1 .71-1.546.266-.774.36-1.621.235-2.434l-.035.14zm8.007-8.184c2.09 3.559-.29 7.004 1.793 8.863.87.758 1.7 1.684 1.953 2.86.289 1.144.164 2.36-.066 3.508-.137.503-.29 1.015-.254 1.546-.004.707.394 1.266.773 1.825-.387-.84-.465-1.829-.101-2.688.671-1.07 1.398-2.281.984-3.605-.426-.953-1.055-1.828-1.012-2.93 0-.133-.02-.273-.004-.41-1.133-1.25-1.172-3.149-1.531-4.742a12.533 12.533 0 0 0-2.062-4.282 5.84 5.84 0 0 0-.918-.722c.203.324.378.668.445.777zM167.363 51c.942 1.324-.351 2.73-.68 4.02-.187.87.153 1.578.649 2.199.02-.309.148-.61.379-.836.289-.317.781-.34 1.043-.68.562-1.05.414-2.387.043-3.48-.871-1.227-1.836-1.754-2.363-3.188-.008.785.457 1.395.93 1.965zm-28.383 2.61c.204 1.68 1.637 3.777 2.836 1.453.153-.208.164-.735.512-.641-.008-.047-.012-.09-.02-.129-.042-.629-.058-1.262-.25-1.867-.12-.461-.261-.942-.331-1.426-.008.004-.012.008-.02.008-.082.043-.184.031-.273.027-.57-.047-2.121-.23-2.61-.644-.074 1.082-.047 2.175.156 3.218zm4.454-2.887a.215.215 0 0 1-.164.218c.18.465.414.91.69 1.325.165.27.364.515.563.761-.25-.996-.503-2-.972-2.918a.585.585 0 0 0-.082-.175c-.02.261-.031.527-.035.789zm-4.317-.692c.219.18.52.219.781.293.38.098.762.172 1.145.239.21.046.441.058.644.14a3.291 3.291 0 0 1-.011-.437c-.028 0-.055 0-.082-.008-.594-.125-1.203-.328-1.805-.328-.226 0-.45.03-.672.101zm3.871.145c.055-.992.282-1.977.328-2.969a.69.69 0 0 1-.086.063c-.695.261-1.492.242-2.218.148-.328-.043-1.246-.316-1.594-.703-.11.719-.273 1.324-.375 1.84-.07.351-.11.715-.148 1.078.199-.11.46-.164.652-.16.734-.043 1.457.168 2.168.336.004 0 .008 0 .012.004.02-.118.05-.231.093-.344.149-.2.285-.282.414-.282.325 0 .575.524.754.989zm18.95-10.285c-.375 2.289-1.06 3.968.453 6.043.793 1.214 1.761 2.332 2.257 3.718.04.102.102.29.157.504a2.932 2.932 0 0 0-.368-1.988c-.562-.656-.976-1.41-1.144-2.27-.531-1.808.687-3.675.082-5.449-.102-.226-.184-.484-.387-.64a.232.232 0 0 1-.191-.207 7.47 7.47 0 0 0-.836-.079c.004.133-.012.274-.024.368zm-4.11.726a1.857 1.857 0 0 0-.496.691c.102.176.035.493.078.676.153 1.555.215 3.395 1.48 4.473.895.879 2.106 1.422 2.833 2.469.062.133.183.363.257.594.176-.36.27-.77.18-1.325-.398-.968-1.594-1.168-2.25-1.918-1.187-1.242-1.933-3.101-1.594-4.836.067-.18.145-.726.274-1.164-.254.133-.543.285-.762.34zm-17.715 6.024c.95.312 2.133.566 3.043.117-.761-.602-2.02-.707-2.664-.7-.113 0-.691 0-1.023.098v.012h.011c.083.148.383.39.633.473"/></g><path fill="#000000" d="M160.555 98.41c.004-.004.004-.004.004-.008.004.004.007.012.011.016a.03.03 0 0 0-.015-.008M165.105 56.41c-.417-.758-.507-1.746-.074-2.52.38-.769 1.14-1.363 1.2-2.273a7.244 7.244 0 0 0-.036-.965c-.023-.183-.093-.484.172-.5.23.008.223.305.258.477.05.441.098.89.008 1.328-.14.86-.848 1.441-1.219 2.195-.32.594-.246 1.317.027 1.914.098.137.145.325-.02.426a.23.23 0 0 1-.316-.082M161.383 59.906c-.18-1.472-1.555-2.136-2.551-3.004-1.152-.836-1.996-2.39-1.5-3.832.043-.23.336-.406.445-.125.024.192-.082.325-.101.504-.457 3.305 3.785 3.48 4.164 6.395.039.297-.414.367-.457.062M148.902 92.148c-2.097-.007-4.32.106-6.168-1.074-.351-.281.098-.601.383-.32.656.406 1.371.594 2.113.77 1.434.234 3.086.308 4.547.273.883-.024 1.438-.453 1.559-.012.101.504-2.055.309-2.434.363M142.488 89.805c-.34-.043-2.09-.438-1.242-.89.414.187.844.37 1.305.425.293.039.23.512-.063.465M157.68 52.54c0-1.317.62-2.43 1.16-3.58.148-.25-.094-.667.176-.8.32-.11.359.297.34.528-.098.843-.7 1.527-.95 2.332a6.266 6.266 0 0 0-.27 1.52c-.003.3-.456.304-.456 0M141.586 49.668c.004.008.004.012.008.016.004.007.008.02.023.043-.234-.403-1.637-1.711-.816-2.016.222-.047.426.113.61.223.3.203.612.386.925.566.3.188.562.422.828.652a.24.24 0 0 1 .043.328c-.074.098-.227.125-.32.043-.524-.507-1.168-.828-1.77-1.222.281.426.64.8.906 1.23.079.285-.34.418-.437.137"/><path fill="#000000" d="M141.473 50.016c-.563-.235-1.118-.477-1.641-.797.09.156.363.207.297.437-.047.184-.274.219-.402.102-.36-.2-.704-1.02-.102-1.11.414.075.758.372 1.129.555.312.152.644.246.95.406.257.157.03.555-.231.407M155.07 49.895c-.297-.043-.238-.5.059-.465.297.02.617-.11.8-.348-.253-.156-1.113-.55-1.132-.86-.008-.16.18-.285.32-.214.238.168.453.367.719.496.207.113.488.203.578.445.066.617-.836 1.008-1.344.946M163.516 76.938c-.293-.126-1.149-.223-1.145-.61.098-.402.492-.074.723-.008.23.125.761.078.703.453a.229.229 0 0 1-.281.165M168.25 77.89c-1.188-.312-2.418-.406-3.613-.703-.399-.109-.211-.64.316-.402 1.133.254 2.297.36 3.418.656.29.075.164.532-.121.45M172.8 78.324c-.94-.039-1.878-.12-2.816-.195-.285.008-.34-.43-.05-.473.957.074 1.91.164 2.867.203.297-.007.297.473 0 .465M173.766 78.48c-.36-.21-.047-.554.285-.445.125.012.21.14.195.262-.031.23-.312.226-.48.183M145.953 105.71c-.098-.03-.144-.089-.156-.16.039-.003.082-.01.121-.019.016 0 .027-.004.043-.004l.215-.015c.023 0 .047-.004.07-.008l.004-.004c-.047.117-.105.219-.23.219-.02 0-.043 0-.067-.008M147.008 105.535a.208.208 0 0 1-.09-.094c.012 0 .023-.004.039-.004.137-.011.27-.03.406-.058-.062.101-.136.191-.238.191a.237.237 0 0 1-.117-.035M153.617 62.516a.238.238 0 0 1-.02-.309c.43-.55.864-1.098 1.29-1.656.758-.871 1.242-1.93 1.847-2.906.149-.258.551-.024.395.238-.629 1.027-1.152 2.129-1.95 3.043-.35.46-.706.918-1.066 1.37-.113.165-.297.411-.496.22M163.02 63.035c-.29-1.914-.387-3.976-1.438-5.652-.723-1.035-1.57-2.008-2.148-3.137-.121-.324-.246-.687-.223-1.027.144-.285.473-.102.465.18.07.687.496 1.242.883 1.78.433.602.851 1.216 1.304 1.801.73 1.008 1 2.266 1.254 3.47.16.835.215 1.683.356 2.523.043.293-.41.367-.453.062M149.168 80.695c-.414-.054-.016-1.082-.05-1.402.038-.586-.028-1.176-.141-1.75-.09-.5-.258-.984-.407-1.465 0-.125.106-.234.23-.234.317.043.298.492.407.726.285.989.469 2.035.332 3.063-.101.293.047 1.074-.371 1.062M171.324 50.242c-2.031-1.324-2.344-2.719-3.015-4.89-.004-.274.406-.317.457-.047.445.914.457 1.988 1.066 2.828.445.715 1.098 1.258 1.773 1.738.235.18-.046.555-.28.371M154.8 93.973c.012-2.368-.284-4.73-.167-7.098.039-.293.496-.238.457.063-.07 1.484.02 2.972.097 4.457.055.859.06 1.718.07 2.578.005.3-.46.304-.456 0"/><g clip-path="url(#e)"><path fill="#000000" d="M175.828 87.473c-1.812-.078-3.621-.11-5.433-.118.007-.007.011-.015.02-.02.128-.144.257-.284.382-.429 0-.004.004-.008.008-.008a258.125 258.125 0 0 1 3.191.063c.61.016 1.219.027 1.832.047.14-.004.219.113.219.234.004.113-.067.23-.219.23"/></g><path fill="#000000" d="M155.367 87.121c-.187-.012-.472.02-.476-.246.023-.336.418-.215.64-.21.496.034.989.065 1.485.093l.011.015c.07.079.157.13.246.184.051.031.098.063.149.09.11.058.21.117.32.164.028.012.055.023.078.035a104.17 104.17 0 0 1-2.453-.125"/></svg>